# Alias OBJ Model File
# Exported from SketchUp, (c) 2000-2012 Trimble Navigation Limited
# File units = inches

mtllib base.mtl

g Mesh1 Model

usemtl Color_B03
v -128.049 0 -148.111
vt 128.049 148.111
vn 0 -1 -0
v -103.399 0 -118.313
vt 103.399 118.313
v -128.049 0 -31.048
vt 128.049 31.048
f 1/1/1 2/2/1 3/3/1

v 54.8122 0 -148.111
vt -54.8122 148.111
f 2/2/1 1/1/1 4/4/1

vt -54.8122 0
vn 0 0 -1
vt 128.049 0
v -128.049 4.5625 -148.111
vt 128.049 4.5625
v 54.8122 4.5625 -148.111
vt -54.8122 4.5625
f 4/5/2 1/6/2 5/7/2 6/8/2 

vt -148.111 0
vn -1 0 -0
vt -31.048 0
v -128.049 4.5625 -31.048
vt -31.048 4.5625
vt -148.111 4.5625
f 1/9/3 3/10/3 7/11/3 5/12/3 

vt -128.049 0
vn 0 0 1
v -64.325 0 -31.048
vt -64.325 0
v -64.325 4.5625 -31.048
vt -64.325 4.5625
vt -128.049 4.5625
f 3/13/4 8/14/4 9/15/4 7/16/4 

v -103.399 0 -90.9377
vt 103.399 90.9377
vt 64.325 31.048
f 3/3/1 10/17/1 8/18/1

f 10/17/1 3/3/1 2/2/1

vt 90.9377 0
vn 1 0 -0
vt 118.313 0
v -103.399 4.5625 -118.313
vt 118.313 4.5625
v -103.399 4.5625 -90.9377
vt 90.9377 4.5625
f 10/19/5 2/20/5 11/21/5 12/22/5 

vt -103.399 0
v -76.0236 0 -118.313
vt -76.0236 0
v -76.0236 4.5625 -118.313
vt -76.0236 4.5625
vt -103.399 4.5625
f 2/23/4 13/24/4 14/25/4 11/26/4 

vt 76.0236 118.313
f 2/2/1 4/4/1 13/27/1

v -76.0236 0 -90.9377
vt 76.0236 90.9377
f 13/27/1 4/4/1 15/28/1

f 15/28/1 4/4/1 8/18/1

v -61.6638 0 -26.9639
vt 61.6638 26.9639
f 8/18/1 4/4/1 16/29/1

v -58.3122 0 -23.4241
vt 58.3122 23.4241
f 16/29/1 4/4/1 17/30/1

v -54.3793 0 -20.544
vt 54.3793 20.544
f 17/30/1 4/4/1 18/31/1

v -49.993 0 -18.4171
vt 49.993 18.4171
f 18/31/1 4/4/1 19/32/1

v -45.2961 0 -17.1126
vt 45.2961 17.1126
f 19/32/1 4/4/1 20/33/1

v -40.4412 0 -16.673
vt 40.4412 16.673
f 20/33/1 4/4/1 21/34/1

v -35.5863 0 -17.1126
vt 35.5863 17.1126
f 21/34/1 4/4/1 22/35/1

v -30.8894 0 -18.4171
vt 30.8894 18.4171
f 22/35/1 4/4/1 23/36/1

v -26.5031 0 -20.544
vt 26.5031 20.544
f 23/36/1 4/4/1 24/37/1

v -22.5702 0 -23.4241
vt 22.5702 23.4241
f 24/37/1 4/4/1 25/38/1

v -19.2186 0 -26.9639
vt 19.2186 26.9639
f 25/38/1 4/4/1 26/39/1

v -16.5574 0 -31.048
vt 16.5574 31.048
f 26/39/1 4/4/1 27/40/1

v -0.601215 0 -31.048
vt 0.601215 31.048
f 27/40/1 4/4/1 28/41/1

v 2.90627 0 -26.9922
vt -2.90627 26.9922
f 28/41/1 4/4/1 29/42/1

v 7.00115 0 -23.5305
vt -7.00115 23.5305
f 29/42/1 4/4/1 30/43/1

v 11.584 0 -20.7468
vt -11.584 20.7468
f 30/43/1 4/4/1 31/44/1

v 16.5437 0 -18.7087
vt -16.5437 18.7087
f 31/44/1 4/4/1 32/45/1

v 21.7597 0 -17.4657
vt -21.7597 17.4657
f 32/45/1 4/4/1 33/46/1

v 27.1055 0 -17.048
vt -27.1055 17.048
f 33/46/1 4/4/1 34/47/1

v 32.4513 0 -17.4657
vt -32.4513 17.4657
f 34/47/1 4/4/1 35/48/1

v 37.6673 0 -18.7087
vt -37.6673 18.7087
f 35/48/1 4/4/1 36/49/1

v 42.6269 0 -20.7468
vt -42.6269 20.7468
f 36/49/1 4/4/1 37/50/1

v 47.2098 0 -23.5305
vt -47.2098 23.5305
f 37/50/1 4/4/1 38/51/1

v 51.3047 0 -26.9922
vt -51.3047 26.9922
f 38/51/1 4/4/1 39/52/1

v 54.8122 0 -31.048
vt -54.8122 31.048
f 39/52/1 4/4/1 40/53/1

v 68.3186 0 -87.1531
vt -68.3186 87.1531
f 40/53/1 4/4/1 41/54/1

v 72.589 0 -94.6512
vt -72.589 94.6512
f 41/54/1 4/4/1 42/55/1

v 79.7353 0 -99.4874
vt -79.7353 99.4874
f 42/55/1 4/4/1 43/56/1

v 94.272 0 -99.0972
vt -94.272 99.0972
f 43/56/1 4/4/1 44/57/1

v 153.682 0 -88.0412
vt -153.682 88.0412
f 44/57/1 4/4/1 45/58/1

vt -85.6271 0
vn 0.519238 0 -0.85463
vt 30.0604 0
vt 30.0604 4.5625
v 153.682 4.5625 -88.0412
vt -85.6271 4.5625
f 45/59/6 4/60/6 6/61/6 46/62/6 

vt 54.8122 148.111
vn 0 1 -0
v 94.272 4.5625 -99.0972
vt 94.272 99.0972
vt 153.682 88.0412
f 6/63/7 47/64/7 46/65/7

v 79.7353 4.5625 -99.4874
vt 79.7353 99.4874
f 47/64/7 6/63/7 48/66/7

v 72.589 4.5625 -94.6512
vt 72.589 94.6512
f 48/66/7 6/63/7 49/67/7

v 68.3186 4.5625 -87.1531
vt 68.3186 87.1531
f 49/67/7 6/63/7 50/68/7

v 67.805 4.5625 -78.5395
vt 67.805 78.5395
f 50/68/7 6/63/7 51/69/7

v 54.8122 4.5625 -31.048
vt 54.8122 31.048
f 6/63/7 52/70/7 51/69/7

v 51.3047 4.5625 -26.9922
vt 51.3047 26.9922
f 6/63/7 53/71/7 52/70/7

v 47.2098 4.5625 -23.5305
vt 47.2098 23.5305
f 6/63/7 54/72/7 53/71/7

v 42.6269 4.5625 -20.7468
vt 42.6269 20.7468
f 6/63/7 55/73/7 54/72/7

v 37.6673 4.5625 -18.7087
vt 37.6673 18.7087
f 6/63/7 56/74/7 55/73/7

v 32.4513 4.5625 -17.4657
vt 32.4513 17.4657
f 6/63/7 57/75/7 56/74/7

v 27.1055 4.5625 -17.048
vt 27.1055 17.048
f 6/63/7 58/76/7 57/75/7

v 21.7597 4.5625 -17.4657
vt 21.7597 17.4657
f 6/63/7 59/77/7 58/76/7

v 16.5437 4.5625 -18.7087
vt 16.5437 18.7087
f 6/63/7 60/78/7 59/77/7

v 11.584 4.5625 -20.7468
vt 11.584 20.7468
f 6/63/7 61/79/7 60/78/7

v 7.00115 4.5625 -23.5305
vt 7.00115 23.5305
f 6/63/7 62/80/7 61/79/7

v 2.90627 4.5625 -26.9922
vt 2.90627 26.9922
f 6/63/7 63/81/7 62/80/7

v -0.601215 4.5625 -31.048
vt -0.601215 31.048
f 6/63/7 64/82/7 63/81/7

v -16.5574 4.5625 -31.048
vt -16.5574 31.048
f 6/63/7 65/83/7 64/82/7

v -19.2186 4.5625 -26.9639
vt -19.2186 26.9639
f 6/63/7 66/84/7 65/83/7

v -22.5702 4.5625 -23.4241
vt -22.5702 23.4241
f 6/63/7 67/85/7 66/84/7

v -26.5031 4.5625 -20.544
vt -26.5031 20.544
f 6/63/7 68/86/7 67/85/7

v -30.8894 4.5625 -18.4171
vt -30.8894 18.4171
f 6/63/7 69/87/7 68/86/7

v -35.5863 4.5625 -17.1126
vt -35.5863 17.1126
f 6/63/7 70/88/7 69/87/7

v -40.4412 4.5625 -16.673
vt -40.4412 16.673
f 6/63/7 71/89/7 70/88/7

v -45.2961 4.5625 -17.1126
vt -45.2961 17.1126
f 6/63/7 72/90/7 71/89/7

v -49.993 4.5625 -18.4171
vt -49.993 18.4171
f 6/63/7 73/91/7 72/90/7

v -54.3793 4.5625 -20.544
vt -54.3793 20.544
f 6/63/7 74/92/7 73/91/7

v -58.3122 4.5625 -23.4241
vt -58.3122 23.4241
f 6/63/7 75/93/7 74/92/7

v -61.6638 4.5625 -26.9639
vt -61.6638 26.9639
f 6/63/7 76/94/7 75/93/7

vt -64.325 31.048
f 6/63/7 9/95/7 76/94/7

vt -76.0236 118.313
f 6/63/7 14/96/7 9/95/7

vt -103.399 118.313
f 6/63/7 11/97/7 14/96/7

vt -128.049 148.111
f 5/98/7 11/97/7 6/63/7

vt -103.399 90.9377
f 11/97/7 5/98/7 12/99/7

vt -128.049 31.048
f 7/100/7 12/99/7 5/98/7

f 12/99/7 7/100/7 9/95/7

v -76.0236 4.5625 -90.9377
vt -76.0236 90.9377
f 12/99/7 9/95/7 77/101/7

f 77/101/7 9/95/7 14/96/7

usemtl FrontColor
vt -118.313 0
vt -90.9377 0
vt -90.9377 4.5625
vt -118.313 4.5625
f 13/102/3 15/103/3 77/104/3 14/105/3 

vt 76.0236 0
vt 103.399 0
vt 103.399 4.5625
vt 76.0236 4.5625
f 15/106/2 10/107/2 12/108/2 77/109/2 

usemtl Color_B03
f 8/18/1 10/17/1 15/28/1

vt -61.1303 0
vn -0.837826 0 0.545937
vt -56.2555 0
vn -0.785182 0 0.619265
vt -56.2555 4.5625
vt -61.1303 4.5625
f 8/110/8 16/111/9 76/112/9 9/113/8 

vt -61.9762 0
vt -57.1015 0
vn -0.661181 0 0.750226
vt -57.1015 4.5625
vt -61.9762 4.5625
f 16/114/9 17/115/10 75/116/10 76/117/9 

vt -60.8856 0
vt -56.0109 0
vn -0.515674 0 0.856785
vt -56.0109 4.5625
vt -60.8856 4.5625
f 17/118/10 18/119/11 74/120/11 75/121/10 

vt -57.8938 0
vt -53.0191 0
vn -0.353394 0 0.935475
vt -53.0191 4.5625
vt -57.8938 4.5625
f 18/122/11 19/123/12 73/124/12 74/125/11 

vt -53.0982 0
vt -48.2234 0
vn -0.179618 0 0.983736
vt -48.2234 4.5625
vt -53.0982 4.5625
f 19/126/12 20/127/13 72/128/13 73/129/12 

vt -46.6547 0
vt -41.78 0
vn 4.25004e-16 0 1
vt -41.78 4.5625
vt -46.6547 4.5625
f 20/130/13 21/131/14 71/132/14 72/133/13 

vt -38.7729 0
vt -33.8982 0
vn 0.179618 0 0.983736
vt -33.8982 4.5625
vt -38.7729 4.5625
f 21/134/14 22/135/15 70/136/15 71/137/14 

vt -29.7093 0
vt -24.8346 0
vn 0.353394 0 0.935475
vt -24.8346 4.5625
vt -29.7093 4.5625
f 22/138/15 23/139/16 69/140/16 70/141/15 

vt -19.7586 0
vt -14.8838 0
vn 0.515674 0 0.856785
vt -14.8838 4.5625
vt -19.7586 4.5625
f 23/142/16 24/143/17 68/144/17 69/145/16 

vt -9.24444 0
vt -4.36972 0
vn 0.661181 0 0.750226
vt -4.36972 4.5625
vt -9.24444 4.5625
f 24/146/17 25/147/18 67/148/18 68/149/17 

vt 1.4911 0
vt 6.36582 0
vn 0.785182 0 0.619265
vt 6.36582 4.5625
vt 1.4911 4.5625
f 25/150/18 26/151/19 66/152/19 67/153/18 

vt 12.0989 0
vt 16.9736 0
vn 0.837826 0 0.545937
vt 16.9736 4.5625
vt 12.0989 4.5625
f 26/154/19 27/155/20 65/156/20 66/157/19 

vt -16.5574 0
vn -4.4531e-16 0 1
vt -0.601215 0
vt -0.601215 4.5625
vt -16.5574 4.5625
f 27/158/21 28/159/21 64/160/21 65/161/21 

vt -23.8775 0
vn -0.756384 0 0.654128
vt -18.5154 0
vn -0.703129 0 0.711062
vt -18.5154 4.5625
vt -23.8775 4.5625
f 28/162/22 29/163/23 63/164/23 64/165/22 

vt -15.2068 0
vt -9.84468 0
vn -0.584148 0 0.811647
vt -9.84468 4.5625
vt -15.2068 4.5625
f 29/166/23 30/167/24 62/168/24 63/169/23 

vt -6.23197 0
vt -0.869899 0
vn -0.450989 0 0.89253
vt -0.869899 4.5625
vt -6.23197 4.5625
f 30/170/24 31/171/25 61/172/25 62/173/24 

vt 2.829 0
vt 8.19107 0
vn -0.306882 0 0.951748
vt 8.19107 4.5625
vt 2.829 4.5625
f 31/174/25 32/175/26 60/176/26 61/177/25 

vt 11.7562 0
vt 17.1183 0
vn -0.155326 0 0.987863
vt 17.1183 4.5625
vt 11.7562 4.5625
f 32/178/26 33/179/27 59/180/27 60/181/26 

vt 20.333 0
vt 25.6951 0
vn 6.68164e-16 0 1
vt 25.6951 4.5625
vt 20.333 4.5625
f 33/182/27 34/183/28 58/184/28 59/185/27 

vt 28.3512 0
vt 33.7132 0
vn 0.155326 0 0.987863
vt 33.7132 4.5625
vt 28.3512 4.5625
f 34/186/28 35/187/29 57/188/29 58/189/28 

vt 35.616 0
vt 40.9781 0
vn 0.306882 0 0.951748
vt 40.9781 4.5625
vt 35.616 4.5625
f 35/190/29 36/191/30 56/192/30 57/193/29 

vt 41.9513 0
vt 47.3134 0
vn 0.450989 0 0.89253
vt 47.3134 4.5625
vt 41.9513 4.5625
f 36/194/30 37/195/31 55/196/31 56/197/30 

vt 47.2032 0
vt 52.5653 0
vn 0.584148 0 0.811647
vt 52.5653 4.5625
vt 47.2032 4.5625
f 37/198/31 38/199/32 54/200/32 55/201/31 

vt 51.2443 0
vt 56.6063 0
vn 0.703129 0 0.711062
vt 56.6063 4.5625
vt 51.2443 4.5625
f 38/202/32 39/203/33 53/204/33 54/205/32 

vt 53.9763 0
vt 59.3384 0
vn 0.756384 0 0.654128
vt 59.3384 4.5625
vt 53.9763 4.5625
f 39/206/33 40/207/34 52/208/34 53/209/33 

vt 54.8122 0
v 153.682 0 -31.048
vt 153.682 0
v 153.682 4.5625 -31.048
vt 153.682 4.5625
vt 54.8122 4.5625
f 40/210/4 78/211/4 79/212/4 52/213/4 

v 77.6751 0 -64.9359
vt -77.6751 64.9359
vt -153.682 31.048
f 40/53/1 80/214/1 78/215/1

v 71.1541 0 -70.587
vt -71.1541 70.587
f 80/214/1 40/53/1 81/216/1

v 67.805 0 -78.5395
vt -67.805 78.5395
f 81/216/1 40/53/1 82/217/1

f 40/53/1 41/54/1 82/217/1

vt 82.436 0
vn 0.985666 0 -0.168708
vt 91.0649 0
vn 0.958635 0 0.284639
vt 91.0649 4.5625
vt 82.436 4.5625
f 82/218/35 41/219/36 50/220/36 51/221/35 

vt 109.542 0
vt 118.171 0
vn 0.73388 0 0.679279
vt 118.171 4.5625
vt 109.542 4.5625
f 41/222/36 42/223/37 49/224/37 50/225/36 

vt 113.165 0
vt 121.794 0
vn 0.560461 0 0.828181
vt 121.794 4.5625
vt 113.165 4.5625
f 42/226/37 43/227/38 48/228/38 49/229/37 

vt -5.04138 0
vn -0.655755 0 0.754973
v 86.9075 0 -93.2577
vt 4.45862 0
v 86.9075 4.5625 -93.2577
vt 4.45862 4.5625
vt -5.04138 4.5625
f 43/230/39 83/231/39 84/232/39 48/233/39 

vt -86.9075 93.2577
f 43/56/1 44/57/1 83/234/1

vt 126.04 0
vn 0.621313 0 0.783563
vt 135.438 0
vt 135.438 4.5625
vt 126.04 4.5625
f 83/235/40 44/236/40 47/237/40 84/238/40 

vt 15.2658 0
vn -0.604075 0 0.796928
v 101.149 0 -93.8847
vt 23.8947 0
vn -0.769258 0 0.638938
v 101.149 4.5625 -93.8847
vt 23.8947 4.5625
vt 15.2658 4.5625
f 44/239/41 85/240/42 86/241/42 47/242/41 

vt -101.149 93.8847
f 44/57/1 45/58/1 85/243/1

v 105.011 0 -86.1683
vt -105.011 86.1683
f 85/243/1 45/58/1 87/244/1

v 105.061 0 -77.5396
vt -105.061 77.5396
f 87/244/1 45/58/1 88/245/1

f 78/215/1 88/245/1 45/58/1

v 101.291 0 -69.7782
vt -101.291 69.7782
f 78/215/1 89/246/1 88/245/1

v 94.476 0 -64.485
vt -94.476 64.485
f 78/215/1 90/247/1 89/246/1

v 86.023 0 -62.7517
vt -86.023 62.7517
f 78/215/1 91/248/1 90/247/1

f 78/215/1 80/214/1 91/248/1

vt -67.3378 0
vn 0.0268277 0 -0.99964
vt -58.7089 0
vn 0.466191 0 -0.884684
v 77.6751 4.5625 -64.9359
vt -58.7089 4.5625
v 86.023 4.5625 -62.7517
vt -67.3378 4.5625
f 91/249/43 80/250/44 92/251/44 93/252/43 

vt -16.1733 0
vt -7.54444 0
vn 0.809399 0 -0.587258
v 71.1541 4.5625 -70.587
vt -7.54444 4.5625
vt -16.1733 4.5625
f 80/253/44 81/254/45 94/255/45 92/256/44 

vt 37.4371 0
vt 46.0659 0
vt 46.0659 4.5625
vt 37.4371 4.5625
f 81/257/45 82/258/35 51/259/35 94/260/45 

vt 71.1541 70.587
f 51/69/7 52/70/7 94/261/7

vt 77.6751 64.9359
f 94/261/7 52/70/7 92/262/7

vt 153.682 31.048
f 92/262/7 52/70/7 79/263/7

vt 86.023 62.7517
f 92/262/7 79/263/7 93/264/7

v 94.476 4.5625 -64.485
vt 94.476 64.485
f 93/264/7 79/263/7 95/265/7

v 101.291 4.5625 -69.7782
vt 101.291 69.7782
f 95/265/7 79/263/7 96/266/7

v 105.061 4.5625 -77.5396
vt 105.061 77.5396
f 96/266/7 79/263/7 97/267/7

f 46/65/7 97/267/7 79/263/7

v 105.011 4.5625 -86.1683
vt 105.011 86.1683
f 46/65/7 98/268/7 97/267/7

vt 101.149 93.8847
f 46/65/7 86/269/7 98/268/7

f 46/65/7 47/64/7 86/269/7

vt -38.6857 0
vt -30.0568 0
vn -0.972522 0 0.232812
vt -30.0568 4.5625
vt -38.6857 4.5625
f 85/270/42 87/271/46 98/272/46 86/273/42 

vt -85.5479 0
vt -76.919 0
vn -0.975198 0 -0.221332
vt -76.919 4.5625
vt -85.5479 4.5625
f 87/274/46 88/275/47 97/276/47 98/277/46 

vt -115.655 0
vt -107.026 0
vn -0.776736 0 -0.629826
vt -107.026 4.5625
vt -115.655 4.5625
f 88/278/47 89/279/48 96/280/48 97/281/47 

vt -122.798 0
vt -114.169 0
vn -0.418068 0 -0.908416
vt -114.169 4.5625
vt -122.798 4.5625
f 89/282/48 90/283/49 95/284/49 96/285/48 

vt -105.503 0
vt -96.8745 0
vt -96.8745 4.5625
vt -105.503 4.5625
f 90/286/49 91/287/43 93/288/43 95/289/49 

v 156.656 4.5625 -35.2249
vt 156.656 35.2249
f 46/65/7 79/263/7 99/290/7

vt 114.429 0
vn 0.814611 0 0.580007
v 156.656 0 -35.2249
vt 119.556 0
vn 0.84593 0 0.533293
vt 119.556 4.5625
vt 114.429 4.5625
f 78/291/50 100/292/51 99/293/51 79/294/50 

v 156.656 0 -83.8643
vt -156.656 83.8643
vt -156.656 35.2249
f 78/215/1 101/295/1 100/296/1

f 78/215/1 45/58/1 101/295/1

vt -22.545 0
vn 0.84593 0 -0.533293
vt -17.4175 0
vn 0.814611 0 -0.580007
vt -17.4175 4.5625
v 156.656 4.5625 -83.8643
vt -22.545 4.5625
f 101/297/52 45/298/53 46/299/53 102/300/52 

vt 156.656 83.8643
f 46/65/7 99/290/7 102/301/7

v 159.142 4.5625 -39.7093
vt 159.142 39.7093
f 102/301/7 99/290/7 103/302/7

vt 106.768 0
v 159.142 0 -39.7093
vt 111.896 0
vn 0.900451 0 0.434958
vt 111.896 4.5625
vt 106.768 4.5625
f 100/303/51 104/304/54 103/305/54 99/306/51 

v 159.142 0 -79.3799
vt -159.142 79.3799
vt -159.142 39.7093
f 100/296/1 105/307/1 104/308/1

f 100/296/1 101/295/1 105/307/1

vt -7.74339 0
vn 0.900451 0 -0.434958
vt -2.61588 0
vt -2.61588 4.5625
v 159.142 4.5625 -79.3799
vt -7.74339 4.5625
f 105/309/55 101/310/52 102/311/52 106/312/55 

vt 159.142 79.3799
f 102/301/7 103/302/7 106/313/7

v 161.11 4.5625 -44.4445
vt 161.11 44.4445
f 106/313/7 103/302/7 107/314/7

vt 97.7253 0
v 161.11 0 -44.4445
vt 102.853 0
vn 0.943588 0 0.331123
vt 102.853 4.5625
vt 97.7253 4.5625
f 104/315/54 108/316/56 107/317/56 103/318/54 

v 161.11 0 -74.6447
vt -161.11 74.6447
vt -161.11 44.4445
f 104/308/1 109/319/1 108/320/1

f 104/308/1 105/307/1 109/319/1

vt 7.12369 0
vn 0.943588 0 -0.331123
vt 12.2512 0
vt 12.2512 4.5625
v 161.11 4.5625 -74.6447
vt 7.12369 4.5625
f 109/321/57 105/322/55 106/323/55 110/324/57 

vt 161.11 74.6447
f 106/313/7 107/314/7 110/325/7

v 162.533 4.5625 -49.3705
vt 162.533 49.3705
f 110/325/7 107/314/7 111/326/7

vt 87.4145 0
v 162.533 0 -49.3705
vt 92.542 0
vn 0.974795 0 0.223102
vt 92.542 4.5625
vt 87.4145 4.5625
f 108/327/56 112/328/58 111/329/58 107/330/56 

v 162.533 0 -69.7187
vt -162.533 69.7187
vt -162.533 49.3705
f 108/320/1 113/331/1 112/332/1

f 108/320/1 109/319/1 113/331/1

vt 21.8683 0
vn 0.974795 0 -0.223102
vt 26.9958 0
vt 26.9958 4.5625
v 162.533 4.5625 -69.7187
vt 21.8683 4.5625
f 113/333/59 109/334/57 110/335/57 114/336/59 

vt 162.533 69.7187
f 110/325/7 111/326/7 114/337/7

v 163.394 4.5625 -54.4252
vt 163.394 54.4252
f 114/337/7 111/326/7 115/338/7

vt 75.9662 0
v 163.394 0 -54.4252
vt 81.0937 0
vn 0.993679 0 0.112261
vt 81.0937 4.5625
vt 75.9662 4.5625
f 112/339/58 116/340/60 115/341/60 111/342/58 

v 163.394 0 -64.664
vt -163.394 64.664
vt -163.394 54.4252
f 112/332/1 117/343/1 116/344/1

f 112/332/1 113/331/1 117/343/1

vt 36.304 0
vn 0.993679 0 -0.112261
vt 41.4315 0
vt 41.4315 4.5625
v 163.394 4.5625 -64.664
vt 36.304 4.5625
f 117/345/61 113/346/59 114/347/59 118/348/61 

vt 163.394 64.664
f 114/337/7 115/338/7 118/349/7

v 163.682 4.5625 -59.5446
vt 163.682 59.5446
f 118/349/7 115/338/7 119/350/7

vt 63.525 0
v 163.682 0 -59.5446
vt 68.6525 0
vn 1 0 1.14673e-16
vt 68.6525 4.5625
vt 63.525 4.5625
f 116/351/60 120/352/62 119/353/62 115/354/60 

vt -163.682 59.5446
f 116/344/1 117/343/1 120/355/1

vt 50.2484 0
vt 55.3759 0
vt 55.3759 4.5625
vt 50.2484 4.5625
f 120/356/62 117/357/61 118/358/61 119/359/62 

vt 86.9075 93.2577
f 47/64/7 48/66/7 84/360/7

