# Alias OBJ Model File
# Exported from SketchUp, (c) 2000-2012 Trimble Navigation Limited
# File units = inches

mtllib APPLE.mtl

g Mesh1 Model

usemtl FrontColor
v 156.656 0 -35.2249
vt 106.768 0
vn 0.84593 0 0.533293
v 159.142 0 -39.7093
vt 111.896 0
vn 0.900451 0 0.434958
v 159.142 1.8125 -39.7093
vt 111.896 1.8125
v 156.656 1.8125 -35.2249
vt 106.768 1.8125
f 1/1/1 2/2/2 3/3/2 4/4/1 

vt 97.7253 0
v 161.11 0 -44.4445
vt 102.853 0
vn 0.943588 0 0.331123
v 161.11 1.8125 -44.4445
vt 102.853 1.8125
vt 97.7253 1.8125
f 2/5/2 5/6/3 6/7/3 3/8/2 

vt 87.4145 0
v 162.533 0 -49.3705
vt 92.542 0
vn 0.974795 0 0.223102
v 162.533 1.8125 -49.3705
vt 92.542 1.8125
vt 87.4145 1.8125
f 5/9/3 7/10/4 8/11/4 6/12/3 

vt 75.9662 0
v 163.394 0 -54.4252
vt 81.0937 0
vn 0.993679 0 0.112261
v 163.394 1.8125 -54.4252
vt 81.0937 1.8125
vt 75.9662 1.8125
f 7/13/4 9/14/5 10/15/5 8/16/4 

vt 63.525 0
v 163.682 0 -59.5446
vt 68.6525 0
vn 1 0 1.14673e-16
v 163.682 1.8125 -59.5446
vt 68.6525 1.8125
vt 63.525 1.8125
f 9/17/5 11/18/6 12/19/6 10/20/5 

vt 50.2484 0
v 163.394 0 -64.664
vt 55.3759 0
vn 0.993679 0 -0.112261
v 163.394 1.8125 -64.664
vt 55.3759 1.8125
vt 50.2484 1.8125
f 11/21/6 13/22/7 14/23/7 12/24/6 

vt 36.304 0
v 162.533 0 -69.7187
vt 41.4315 0
vn 0.974795 0 -0.223102
v 162.533 1.8125 -69.7187
vt 41.4315 1.8125
vt 36.304 1.8125
f 13/25/7 15/26/8 16/27/8 14/28/7 

vt 21.8683 0
v 161.11 0 -74.6447
vt 26.9958 0
vn 0.943588 0 -0.331123
v 161.11 1.8125 -74.6447
vt 26.9958 1.8125
vt 21.8683 1.8125
f 15/29/8 17/30/9 18/31/9 16/32/8 

vt 7.12369 0
v 159.142 0 -79.3799
vt 12.2512 0
vn 0.900451 0 -0.434958
v 159.142 1.8125 -79.3799
vt 12.2512 1.8125
vt 7.12369 1.8125
f 17/33/9 19/34/10 20/35/10 18/36/9 

vt -7.74339 0
v 156.656 0 -83.8643
vt -2.61588 0
vn 0.84593 0 -0.533293
v 156.656 1.8125 -83.8643
vt -2.61588 1.8125
vt -7.74339 1.8125
f 19/37/10 21/38/11 22/39/11 20/40/10 

vt -22.545 0
v 153.682 0 -88.0412
vt -17.4175 0
vn 0.814611 0 -0.580007
v 153.682 1.8125 -88.0412
vt -17.4175 1.8125
vt -22.545 1.8125
f 21/41/11 23/42/12 24/43/12 22/44/11 

v 153.682 0 -31.048
vt 114.429 0
vn 0.814611 0 0.580007
vt 119.556 0
vt 119.556 1.8125
v 153.682 1.8125 -31.048
vt 114.429 1.8125
f 25/45/13 1/46/1 4/47/1 26/48/13 

g Mesh2 Model

usemtl Color_K02
v -56.0713 8.9375 -74.0544
vt -56.0713 74.0544
vn 0 1 -0
v -74.5148 8.9375 -74.0544
vt -74.5148 74.0544
v -74.3699 8.9375 -71.1932
vt -74.3699 71.1932
v -73.9366 8.9375 -68.3614
vt -73.9366 68.3614
v -73.2193 8.9375 -65.5878
vt -73.2193 65.5878
v -72.2254 8.9375 -62.9009
vt -72.2254 62.9009
v -70.965 8.9375 -60.3282
vt -70.965 60.3282
v -69.4511 8.9375 -57.8961
vt -69.4511 57.8961
v -67.6992 8.9375 -55.6294
vt -67.6992 55.6294
v -65.7272 8.9375 -53.5513
vt -65.7272 53.5513
v -63.5553 8.9375 -51.6831
vt -63.5553 51.6831
v -61.2057 8.9375 -50.044
vt -61.2057 50.044
v -58.7025 8.9375 -48.6508
vt -58.7025 48.6508
v -56.0713 8.9375 -47.5176
vt -56.0713 47.5176
f 27/49/14 28/50/14 29/51/14 30/52/14 31/53/14 32/54/14 33/55/14 34/56/14 35/57/14 36/58/14 37/59/14 38/60/14 39/61/14 40/62/14 

usemtl FrontColor
vt 56.0713 8.9375
vn 0 0 -1
v -56.0713 1.0625 -74.0544
vt 56.0713 1.0625
v -74.5148 1.0625 -74.0544
vt 74.5148 1.0625
vt 74.5148 8.9375
f 27/63/15 41/64/15 42/65/15 28/66/15 

usemtl Color_K02
vt 74.0544 8.9375
vn 1 0 -0
vt 47.5176 8.9375
v -56.0713 1.0625 -47.5176
vt 47.5176 1.0625
vt 74.0544 1.0625
f 27/67/16 40/68/16 43/69/16 41/70/16 

vt -70.2938 8.9375
vn -0.395546 0 0.918446
vt -73.1587 8.9375
vn -0.441506 0 0.897258
v -58.7025 1.0625 -48.6508
vt -73.1587 1.0625
vt -70.2938 1.0625
f 40/71/17 39/72/18 44/73/18 43/74/17 

vt -74.9532 8.9375
vt -77.818 8.9375
vn -0.529919 0 0.848048
v -61.2057 1.0625 -50.044
vt -77.818 1.0625
vt -74.9532 1.0625
f 39/75/18 38/76/19 45/77/19 44/78/18 

vt -78.8304 8.9375
vt -81.6953 8.9375
vn -0.612907 0 0.790155
v -63.5553 1.0625 -51.6831
vt -81.6953 1.0625
vt -78.8304 1.0625
f 38/79/19 37/80/20 46/81/20 45/82/19 

vt -81.8859 8.9375
vt -84.7507 8.9375
vn -0.68962 0 0.724172
v -65.7272 1.0625 -53.5513
vt -84.7507 1.0625
vt -81.8859 1.0625
f 37/83/20 36/84/21 47/85/21 46/86/20 

vt -84.0883 8.9375
vt -86.9532 8.9375
vn -0.759271 0 0.650774
v -67.6992 1.0625 -55.6294
vt -86.9532 1.0625
vt -84.0883 1.0625
f 36/87/21 35/88/22 48/89/22 47/90/21 

vt -85.4151 8.9375
vt -88.28 8.9375
vn -0.821149 0 0.570714
v -69.4511 1.0625 -57.8961
vt -88.28 1.0625
vt -85.4151 1.0625
f 35/91/22 34/92/23 49/93/23 48/94/22 

vt -85.8528 8.9375
vt -88.7176 8.9375
vn -0.87462 0 0.48481
v -70.965 1.0625 -60.3282
vt -88.7176 1.0625
vt -85.8528 1.0625
f 34/95/23 33/96/24 50/97/24 49/98/23 

vt -85.3967 8.9375
vt -88.2615 8.9375
vn -0.919135 0 0.393942
v -72.2254 1.0625 -62.9009
vt -88.2615 1.0625
vt -85.3967 1.0625
f 33/99/24 32/100/25 51/101/25 50/102/24 

vt -84.0516 8.9375
vt -86.9164 8.9375
vn -0.95424 0 0.299041
v -73.2193 1.0625 -65.5878
vt -86.9164 1.0625
vt -84.0516 1.0625
f 32/103/25 31/104/26 52/105/26 51/106/25 

vt -81.8313 8.9375
vt -84.6961 8.9375
vn -0.979575 0 0.201078
v -73.9366 1.0625 -68.3614
vt -84.6961 1.0625
vt -81.8313 1.0625
f 31/107/26 30/108/27 53/109/27 52/110/26 

vt -78.7585 8.9375
vt -81.6233 8.9375
vn -0.994881 -3.13824e-19 0.101056
v -74.3699 1.0625 -71.1932
vt -81.6233 1.0625
vt -78.7585 1.0625
f 30/111/27 29/112/28 54/113/28 53/114/27 

vt -74.8647 8.9375
vt -77.7295 8.9375
vn -0.998719 -6.26844e-19 0.0505929
vt -77.7295 1.0625
vt -74.8647 1.0625
f 29/115/28 28/116/29 42/117/29 54/118/28 

usemtl FrontColor
vt 74.5148 74.0544
vn 0 -1 -0
vt 56.0713 74.0544
vt 56.0713 47.5176
vt 58.7025 48.6508
vt 61.2057 50.044
vt 63.5553 51.6831
vt 65.7272 53.5513
vt 67.6992 55.6294
vt 69.4511 57.8961
vt 70.965 60.3282
vt 72.2254 62.9009
vt 73.2193 65.5878
vt 73.9366 68.3614
vt 74.3699 71.1932
f 42/119/30 41/120/30 43/121/30 44/122/30 45/123/30 46/124/30 47/125/30 48/126/30 49/127/30 50/128/30 51/129/30 52/130/30 53/131/30 54/132/30 

