# Alias OBJ Model File
# Exported from SketchUp, (c) 2000-2012 Trimble Navigation Limited
# File units = inches

mtllib REPUBLIC.mtl

g Mesh1 Model

usemtl Color_I02
v 72.0661 10.4375 -54.3706
vt 72.0661 54.3706
vn 0 1 -0
v 81.2489 10.4375 -43.9937
vt 81.2489 43.9937
v 105.393 10.4375 -43.9937
vt 105.393 43.9937
v 105.393 10.4375 -60.4937
vt 105.393 60.4937
v 102.903 10.4375 -59.6331
vt 102.903 59.6331
v 100.375 10.4375 -58.8922
vt 100.375 58.8922
v 97.8143 10.4375 -58.273
vt 97.8143 58.273
v 95.2268 10.4375 -57.7767
vt 95.2268 57.7767
v 92.6186 10.4375 -57.4046
vt 92.6186 57.4046
v 89.9956 10.4375 -57.1574
vt 89.9956 57.1574
v 87.3637 10.4375 -57.0358
vt 87.3637 57.0358
v 84.7291 10.4375 -57.0399
vt 84.7291 57.0399
v 82.0977 10.4375 -57.1698
vt 82.0977 57.1698
v 79.4755 10.4375 -57.4253
vt 79.4755 57.4253
v 76.8684 10.4375 -57.8056
vt 76.8684 57.8056
v 74.2825 10.4375 -58.31
vt 74.2825 58.31
f 1/1/1 2/2/1 3/3/1 4/4/1 5/5/1 6/6/1 7/7/1 8/8/1 9/9/1 10/10/1 11/11/1 12/12/1 13/13/1 14/14/1 15/15/1 16/16/1 

usemtl Color_L01
vt 7.04131 10.4375
vn -0.748882 0 0.662704
v 72.0661 10.3125 -54.3706
vt 7.04131 10.3125
v 81.2489 10.3125 -43.9937
vt 20.8978 10.3125
vt 20.8978 10.4375
f 1/17/2 17/18/2 18/19/2 2/20/2 

usemtl Color_I02
v 74.2825 1.8125 -58.31
vt -87.2431 1.8125
vn -0.871526 0 -0.490349
v 72.0661 1.8125 -54.3706
vt -82.723 1.8125
vt -82.723 10.3125
vt -82.723 10.4375
vt -87.2431 10.4375
f 19/21/3 20/22/3 17/23/3 1/24/3 16/25/3 

usemtl Color_K01
v 68.0878 1.8125 -47.2997
vt -74.6097 1.8125
v 68.0878 10.3125 -47.2997
vt -74.6097 10.3125
f 20/22/3 21/26/3 22/27/3 17/23/3 

vt -47.2997 1.8125
vn -1 0 -0
v 68.0878 1.8125 -37.6812
vt -37.6812 1.8125
v 68.0878 10.3125 -37.6812
vt -37.6812 10.3125
vt -47.2997 10.3125
f 21/28/4 23/29/4 24/30/4 22/31/4 

vt 68.0878 1.8125
vn 0 0 1
v 81.2489 1.8125 -37.6812
vt 81.2489 1.8125
v 81.2489 10.3125 -37.6812
vt 81.2489 10.3125
vt 68.0878 10.3125
f 23/32/5 25/33/5 26/34/5 24/35/5 

v 109.456 1.8125 -37.6812
vt 109.456 1.8125
v 109.456 10.4375 -37.6812
vt 109.456 10.4375
v 81.2489 10.4375 -37.6812
vt 81.2489 10.4375
f 25/33/5 27/36/5 28/37/5 29/38/5 26/34/5 

vt 37.6812 1.8125
vn 1 0 -0
v 109.456 1.8125 -43.9937
vt 43.9937 1.8125
v 109.456 10.4375 -43.9937
vt 43.9937 10.4375
vt 37.6812 10.4375
f 27/39/6 30/40/6 31/41/6 28/42/6 

vt -109.456 1.8125
vn 0 0 -1
v 105.393 1.8125 -43.9937
vt -105.393 1.8125
vt -105.393 10.4375
vt -109.456 10.4375
f 30/43/7 32/44/7 3/45/7 31/46/7 

usemtl Color_I02
v 105.393 1.8125 -60.4937
vt 60.4937 1.8125
vt 60.4937 10.4375
f 32/40/6 33/47/6 4/48/6 3/41/6 

vt -119.373 1.8125
vn -0.326683 0 -0.945134
v 102.903 1.8125 -59.6331
vt -116.739 1.8125
vn -0.304019 0 -0.952666
vt -116.739 10.4375
vt -119.373 10.4375
f 33/49/8 34/50/9 5/51/9 4/52/8 

vt -115.519 1.8125
v 100.375 1.8125 -58.8922
vt -112.885 1.8125
vn -0.258184 0 -0.966096
vt -112.885 10.4375
vt -115.519 10.4375
f 34/53/9 35/54/10 6/55/10 5/56/9 

vt -111.405 1.8125
v 97.8143 1.8125 -58.273
vt -108.771 1.8125
vn -0.21176 0 -0.977322
vt -108.771 10.4375
vt -111.405 10.4375
f 35/57/10 36/58/11 7/59/11 6/60/10 

vt -107.04 1.8125
v 95.2268 1.8125 -57.7767
vt -104.405 1.8125
vn -0.164853 0 -0.986318
vt -104.405 10.4375
vt -107.04 10.4375
f 36/61/11 37/62/12 8/63/12 7/64/11 

vt -102.433 1.8125
v 92.6186 1.8125 -57.4046
vt -99.7984 1.8125
vn -0.11757 0 -0.993065
vt -99.7984 10.4375
vt -102.433 10.4375
f 37/65/12 38/66/13 9/67/13 8/68/12 

vt -97.5958 1.8125
v 89.9956 1.8125 -57.1574
vt -94.9611 1.8125
vn -0.0700184 0 -0.997546
vt -94.9611 10.4375
vt -97.5958 10.4375
f 38/69/13 39/70/14 10/71/14 9/72/13 

vt -92.5389 1.8125
v 87.3637 1.8125 -57.0358
vt -89.9042 1.8125
vn -0.0223073 0 -0.999751
vt -89.9042 10.4375
vt -92.5389 10.4375
f 39/73/14 40/74/15 11/75/15 10/76/14 

vt -87.2738 1.8125
v 84.7291 1.8125 -57.0399
vt -84.6392 1.8125
vn 0.0254546 0 -0.999676
vt -84.6392 10.4375
vt -87.2738 10.4375
f 40/77/15 41/78/16 12/79/16 11/80/15 

vt -81.8128 1.8125
v 82.0977 1.8125 -57.1698
vt -79.1781 1.8125
vn 0.0731585 0 -0.99732
vt -79.1781 10.4375
vt -81.8128 10.4375
f 41/81/16 42/82/17 13/83/17 12/84/16 

vt -76.168 1.8125
v 79.4755 1.8125 -57.4253
vt -73.5334 1.8125
vn 0.120695 0 -0.99269
vt -73.5334 10.4375
vt -76.168 10.4375
f 42/85/17 43/86/18 14/87/18 13/88/17 

vt -70.3526 1.8125
v 76.8684 1.8125 -57.8056
vt -67.7179 1.8125
vn 0.167957 0 -0.985794
vt -67.7179 10.4375
vt -70.3526 10.4375
f 43/89/18 44/90/19 15/91/19 14/92/18 

vt -64.3796 1.8125
vt -61.745 1.8125
vn 0.191451 0 -0.981502
vt -61.745 10.4375
vt -64.3796 10.4375
f 44/93/19 19/94/20 16/95/20 15/96/19 

usemtl Color_K01
vt 109.456 43.9937
vt 81.2489 37.6812
vt 109.456 37.6812
f 31/97/1 3/3/1 2/2/1 29/98/1 28/99/1 

vt -43.9937 10.3125
vt -37.6812 10.4375
vt -43.9937 10.4375
f 18/100/4 26/30/4 29/101/4 2/102/4 

vt 68.0878 47.2997
vt 68.0878 37.6812
f 26/98/1 18/2/1 17/1/1 22/103/1 24/104/1 

