# Alias OBJ Model File
# Exported from SketchUp, (c) 2000-2012 Trimble Navigation Limited
# File units = inches

mtllib SKECH.mtl

g Mesh1 Model

usemtl FrontColor
v 156.656 0 -35.2249
vt 106.768 0
vn 0.84593 0 0.533293
v 159.142 0 -39.7093
vt 111.896 0
vn 0.900451 0 0.434958
v 159.142 1.8125 -39.7093
vt 111.896 1.8125
v 156.656 1.8125 -35.2249
vt 106.768 1.8125
f 1/1/1 2/2/2 3/3/2 4/4/1 

vt -156.656 35.2249
vn 0 -1 -0
v 159.142 0 -79.3799
vt -159.142 79.3799
vt -159.142 39.7093
f 1/5/3 5/6/3 2/7/3

v 156.656 0 -83.8643
vt -156.656 83.8643
f 1/5/3 6/8/3 5/6/3

v 153.682 0 -31.048
vt -153.682 31.048
f 7/9/3 6/8/3 1/5/3

v 153.682 0 -88.0412
vt -153.682 88.0412
f 7/9/3 8/10/3 6/8/3

v 105.061 0 -77.5396
vt -105.061 77.5396
f 7/9/3 9/11/3 8/10/3

v 101.291 0 -69.7782
vt -101.291 69.7782
f 7/9/3 10/12/3 9/11/3

v 94.476 0 -64.485
vt -94.476 64.485
f 7/9/3 11/13/3 10/12/3

v 86.023 0 -62.7517
vt -86.023 62.7517
f 7/9/3 12/14/3 11/13/3

v 77.6751 0 -64.9359
vt -77.6751 64.9359
f 7/9/3 13/15/3 12/14/3

v 54.8122 0 -31.048
vt -54.8122 31.048
f 14/16/3 13/15/3 7/9/3

v 71.1541 0 -70.587
vt -71.1541 70.587
f 13/15/3 14/16/3 15/17/3

v 67.805 0 -78.5395
vt -67.805 78.5395
f 15/17/3 14/16/3 16/18/3

v 68.3186 0 -87.1531
vt -68.3186 87.1531
f 14/16/3 17/19/3 16/18/3

v 54.8122 0 -148.111
vt -54.8122 148.111
f 14/16/3 18/20/3 17/19/3

v 51.3047 0 -26.9922
vt -51.3047 26.9922
f 19/21/3 18/20/3 14/16/3

v 47.2098 0 -23.5305
vt -47.2098 23.5305
f 20/22/3 18/20/3 19/21/3

v 42.6269 0 -20.7468
vt -42.6269 20.7468
f 21/23/3 18/20/3 20/22/3

v 37.6673 0 -18.7087
vt -37.6673 18.7087
f 22/24/3 18/20/3 21/23/3

v 32.4513 0 -17.4657
vt -32.4513 17.4657
f 23/25/3 18/20/3 22/24/3

v 27.1055 0 -17.048
vt -27.1055 17.048
f 24/26/3 18/20/3 23/25/3

v 21.7597 0 -17.4657
vt -21.7597 17.4657
f 25/27/3 18/20/3 24/26/3

v 16.5437 0 -18.7087
vt -16.5437 18.7087
f 26/28/3 18/20/3 25/27/3

v 11.584 0 -20.7468
vt -11.584 20.7468
f 27/29/3 18/20/3 26/28/3

v 7.00115 0 -23.5305
vt -7.00115 23.5305
f 28/30/3 18/20/3 27/29/3

v 2.90627 0 -26.9922
vt -2.90627 26.9922
f 29/31/3 18/20/3 28/30/3

v -0.601215 0 -31.048
vt 0.601215 31.048
f 30/32/3 18/20/3 29/31/3

v -16.5574 0 -31.048
vt 16.5574 31.048
f 31/33/3 18/20/3 30/32/3

v -19.2186 0 -26.9639
vt 19.2186 26.9639
f 32/34/3 18/20/3 31/33/3

v -22.5702 0 -23.4241
vt 22.5702 23.4241
f 33/35/3 18/20/3 32/34/3

v -26.5031 0 -20.544
vt 26.5031 20.544
f 34/36/3 18/20/3 33/35/3

v -30.8894 0 -18.4171
vt 30.8894 18.4171
f 35/37/3 18/20/3 34/36/3

v -35.5863 0 -17.1126
vt 35.5863 17.1126
f 36/38/3 18/20/3 35/37/3

v -40.4412 0 -16.673
vt 40.4412 16.673
f 37/39/3 18/20/3 36/38/3

v -45.2961 0 -17.1126
vt 45.2961 17.1126
f 38/40/3 18/20/3 37/39/3

v -49.993 0 -18.4171
vt 49.993 18.4171
f 39/41/3 18/20/3 38/40/3

v -54.3793 0 -20.544
vt 54.3793 20.544
f 40/42/3 18/20/3 39/41/3

v -58.3122 0 -23.4241
vt 58.3122 23.4241
f 41/43/3 18/20/3 40/42/3

v -61.6638 0 -26.9639
vt 61.6638 26.9639
f 42/44/3 18/20/3 41/43/3

v -64.325 0 -31.048
vt 64.325 31.048
f 43/45/3 18/20/3 42/44/3

v -76.0236 0 -90.9377
vt 76.0236 90.9377
f 44/46/3 18/20/3 43/45/3

v -76.0236 0 -118.313
vt 76.0236 118.313
f 45/47/3 18/20/3 44/46/3

v -103.399 0 -118.313
vt 103.399 118.313
f 46/48/3 18/20/3 45/47/3

v -128.049 0 -148.111
vt 128.049 148.111
f 46/48/3 47/49/3 18/20/3

v -128.049 0 -31.048
vt 128.049 31.048
f 47/49/3 46/48/3 48/50/3

v -103.399 0 -90.9377
vt 103.399 90.9377
f 49/51/3 48/50/3 46/48/3

f 48/50/3 49/51/3 43/45/3

f 43/45/3 49/51/3 44/46/3

vt 76.0236 0
vn 0 0 -1
vt 103.399 0
v -103.399 1.8125 -90.9377
vt 103.399 1.8125
v -76.0236 1.8125 -90.9377
vt 76.0236 1.8125
f 44/52/4 49/53/4 50/54/4 51/55/4 

usemtl Color_B03
vt 90.9377 0
vn 1 0 -0
vt 118.313 0
v -103.399 1.8125 -118.313
vt 118.313 1.8125
vt 90.9377 1.8125
f 49/56/5 46/57/5 52/58/5 50/59/5 

vt -103.399 0
vn 0 0 1
vt -76.0236 0
v -76.0236 1.8125 -118.313
vt -76.0236 1.8125
vt -103.399 1.8125
f 46/60/6 45/61/6 53/62/6 52/63/6 

usemtl FrontColor
vt -118.313 0
vn -1 0 -0
vt -90.9377 0
vt -90.9377 1.8125
vt -118.313 1.8125
f 45/64/7 44/65/7 51/66/7 53/67/7 

usemtl Color_B03
vt -76.0236 90.9377
vn 0 1 -0
v -64.325 1.8125 -31.048
vt -64.325 31.048
vt -76.0236 118.313
f 51/68/8 54/69/8 53/70/8

vt -103.399 90.9377
f 50/71/8 54/69/8 51/68/8

v -128.049 1.8125 -31.048
vt -128.049 31.048
f 50/71/8 55/72/8 54/69/8

v -128.049 1.8125 -148.111
vt -128.049 148.111
f 55/72/8 50/71/8 56/73/8

vt -103.399 118.313
f 52/74/8 56/73/8 50/71/8

v 54.8122 1.8125 -148.111
vt 54.8122 148.111
f 56/73/8 52/74/8 57/75/8

f 57/75/8 52/74/8 53/70/8

v -46.2023 1.8125 -102.367
vt -46.2023 102.367
f 57/75/8 53/70/8 58/76/8

f 58/76/8 53/70/8 54/69/8

v -61.6638 1.8125 -26.9639
vt -61.6638 26.9639
f 58/76/8 54/69/8 59/77/8

vt -61.1303 0
vn -0.837826 0 0.545937
vt -56.2555 0
vn -0.785182 0 0.619265
vt -56.2555 1.8125
vt -61.1303 1.8125
f 43/78/9 42/79/10 59/80/10 54/81/9 

vt -61.9762 0
vt -57.1015 0
vn -0.661181 0 0.750226
v -58.3122 1.8125 -23.4241
vt -57.1015 1.8125
vt -61.9762 1.8125
f 42/82/10 41/83/11 60/84/11 59/85/10 

vt -60.8856 0
vt -56.0109 0
vn -0.515674 0 0.856785
v -54.3793 1.8125 -20.544
vt -56.0109 1.8125
vt -60.8856 1.8125
f 41/86/11 40/87/12 61/88/12 60/89/11 

vt -57.8938 0
vt -53.0191 0
vn -0.353394 0 0.935475
v -49.993 1.8125 -18.4171
vt -53.0191 1.8125
vt -57.8938 1.8125
f 40/90/12 39/91/13 62/92/13 61/93/12 

vt -53.0982 0
vt -48.2234 0
vn -0.179618 0 0.983736
v -45.2961 1.8125 -17.1126
vt -48.2234 1.8125
vt -53.0982 1.8125
f 39/94/13 38/95/14 63/96/14 62/97/13 

vt -46.6547 0
vt -41.78 0
vn 4.25004e-16 0 1
v -40.4412 1.8125 -16.673
vt -41.78 1.8125
vt -46.6547 1.8125
f 38/98/14 37/99/15 64/100/15 63/101/14 

vt -38.7729 0
vt -33.8982 0
vn 0.179618 0 0.983736
v -35.5863 1.8125 -17.1126
vt -33.8982 1.8125
vt -38.7729 1.8125
f 37/102/15 36/103/16 65/104/16 64/105/15 

vt -29.7093 0
vt -24.8346 0
vn 0.353394 0 0.935475
v -30.8894 1.8125 -18.4171
vt -24.8346 1.8125
vt -29.7093 1.8125
f 36/106/16 35/107/17 66/108/17 65/109/16 

vt -19.7586 0
vt -14.8838 0
vn 0.515674 0 0.856785
v -26.5031 1.8125 -20.544
vt -14.8838 1.8125
vt -19.7586 1.8125
f 35/110/17 34/111/18 67/112/18 66/113/17 

vt -9.24444 0
vt -4.36972 0
vn 0.661181 0 0.750226
v -22.5702 1.8125 -23.4241
vt -4.36972 1.8125
vt -9.24444 1.8125
f 34/114/18 33/115/19 68/116/19 67/117/18 

vt 1.4911 0
vt 6.36582 0
vn 0.785182 0 0.619265
v -19.2186 1.8125 -26.9639
vt 6.36582 1.8125
vt 1.4911 1.8125
f 33/118/19 32/119/20 69/120/20 68/121/19 

vt 12.0989 0
vt 16.9736 0
vn 0.837826 0 0.545937
v -16.5574 1.8125 -31.048
vt 16.9736 1.8125
vt 12.0989 1.8125
f 32/122/20 31/123/21 70/124/21 69/125/20 

vt -16.5574 0
vn -4.4531e-16 0 1
vt -0.601215 0
v -0.601215 1.8125 -31.048
vt -0.601215 1.8125
vt -16.5574 1.8125
f 31/126/22 30/127/22 71/128/22 70/129/22 

vt -23.8775 0
vn -0.756384 0 0.654128
vt -18.5154 0
vn -0.703129 0 0.711062
v 2.90627 1.8125 -26.9922
vt -18.5154 1.8125
vt -23.8775 1.8125
f 30/130/23 29/131/24 72/132/24 71/133/23 

vt -15.2068 0
vt -9.84468 0
vn -0.584148 0 0.811647
v 7.00115 1.8125 -23.5305
vt -9.84468 1.8125
vt -15.2068 1.8125
f 29/134/24 28/135/25 73/136/25 72/137/24 

vt -6.23197 0
vt -0.869899 0
vn -0.450989 0 0.89253
v 11.584 1.8125 -20.7468
vt -0.869899 1.8125
vt -6.23197 1.8125
f 28/138/25 27/139/26 74/140/26 73/141/25 

vt 2.829 0
vt 8.19107 0
vn -0.306882 0 0.951748
v 16.5437 1.8125 -18.7087
vt 8.19107 1.8125
vt 2.829 1.8125
f 27/142/26 26/143/27 75/144/27 74/145/26 

vt 11.7562 0
vt 17.1183 0
vn -0.155326 0 0.987863
v 21.7597 1.8125 -17.4657
vt 17.1183 1.8125
vt 11.7562 1.8125
f 26/146/27 25/147/28 76/148/28 75/149/27 

vt 20.333 0
vt 25.6951 0
vn 6.68164e-16 0 1
v 27.1055 1.8125 -17.048
vt 25.6951 1.8125
vt 20.333 1.8125
f 25/150/28 24/151/29 77/152/29 76/153/28 

vt 28.3512 0
vt 33.7132 0
vn 0.155326 0 0.987863
v 32.4513 1.8125 -17.4657
vt 33.7132 1.8125
vt 28.3512 1.8125
f 24/154/29 23/155/30 78/156/30 77/157/29 

vt 35.616 0
vt 40.9781 0
vn 0.306882 0 0.951748
v 37.6673 1.8125 -18.7087
vt 40.9781 1.8125
vt 35.616 1.8125
f 23/158/30 22/159/31 79/160/31 78/161/30 

vt 41.9513 0
vt 47.3134 0
vn 0.450989 0 0.89253
v 42.6269 1.8125 -20.7468
vt 47.3134 1.8125
vt 41.9513 1.8125
f 22/162/31 21/163/32 80/164/32 79/165/31 

vt 47.2032 0
vt 52.5653 0
vn 0.584148 0 0.811647
v 47.2098 1.8125 -23.5305
vt 52.5653 1.8125
vt 47.2032 1.8125
f 21/166/32 20/167/33 81/168/33 80/169/32 

vt 51.2443 0
vt 56.6063 0
vn 0.703129 0 0.711062
v 51.3047 1.8125 -26.9922
vt 56.6063 1.8125
vt 51.2443 1.8125
f 20/170/33 19/171/34 82/172/34 81/173/33 

vt 53.9763 0
vt 59.3384 0
vn 0.756384 0 0.654128
v 54.8122 1.8125 -31.048
vt 59.3384 1.8125
vt 53.9763 1.8125
f 19/174/34 14/175/35 83/176/35 82/177/34 

vt 54.8122 0
vt 153.682 0
v 153.682 1.8125 -31.048
vt 153.682 1.8125
vt 54.8122 1.8125
f 14/178/6 7/179/6 84/180/6 83/181/6 

usemtl FrontColor
vt 114.429 0
vn 0.814611 0 0.580007
vt 119.556 0
vt 119.556 1.8125
vt 114.429 1.8125
f 7/182/36 1/183/1 4/184/1 84/185/36 

usemtl Color_B03
v 153.682 1.8125 -88.0412
vt 153.682 88.0412
vt 153.682 31.048
vt 156.656 35.2249
f 85/186/8 84/187/8 4/188/8

v 105.061 1.8125 -77.5396
vt 105.061 77.5396
f 85/186/8 86/189/8 84/187/8

v 105.011 1.8125 -86.1683
vt 105.011 86.1683
f 85/186/8 87/190/8 86/189/8

v 101.149 1.8125 -93.8847
vt 101.149 93.8847
f 85/186/8 88/191/8 87/190/8

v 94.272 1.8125 -99.0972
vt 94.272 99.0972
f 85/186/8 89/192/8 88/191/8

f 57/75/8 89/192/8 85/186/8

v 79.7353 1.8125 -99.4874
vt 79.7353 99.4874
f 89/192/8 57/75/8 90/193/8

v 72.589 1.8125 -94.6512
vt 72.589 94.6512
f 90/193/8 57/75/8 91/194/8

v 68.3186 1.8125 -87.1531
vt 68.3186 87.1531
f 91/194/8 57/75/8 92/195/8

v 67.805 1.8125 -78.5395
vt 67.805 78.5395
f 92/195/8 57/75/8 93/196/8

vt 54.8122 31.048
f 57/75/8 83/197/8 93/196/8

vt 51.3047 26.9922
f 57/75/8 82/198/8 83/197/8

vt 47.2098 23.5305
f 57/75/8 81/199/8 82/198/8

vt 42.6269 20.7468
f 57/75/8 80/200/8 81/199/8

vt 37.6673 18.7087
f 57/75/8 79/201/8 80/200/8

vt 32.4513 17.4657
f 57/75/8 78/202/8 79/201/8

vt 27.1055 17.048
f 57/75/8 77/203/8 78/202/8

vt 21.7597 17.4657
f 57/75/8 76/204/8 77/203/8

vt 16.5437 18.7087
f 57/75/8 75/205/8 76/204/8

vt 11.584 20.7468
f 57/75/8 74/206/8 75/205/8

vt 7.00115 23.5305
f 57/75/8 73/207/8 74/206/8

vt 2.90627 26.9922
f 57/75/8 72/208/8 73/207/8

vt -0.601215 31.048
f 57/75/8 71/209/8 72/208/8

vt -16.5574 31.048
f 57/75/8 70/210/8 71/209/8

vt -19.2186 26.9639
f 57/75/8 69/211/8 70/210/8

vt -22.5702 23.4241
f 57/75/8 68/212/8 69/211/8

vt -26.5031 20.544
f 57/75/8 67/213/8 68/212/8

v -28.7648 1.8125 -102.367
vt -28.7648 102.367
f 57/75/8 94/214/8 67/213/8

f 57/75/8 58/76/8 94/214/8

usemtl Color_L01
vt 28.7648 1.8125
vt 46.2023 1.8125
v -46.2023 8.875 -102.367
vt 46.2023 8.875
v -46.2023 8.9375 -102.367
vt 46.2023 8.9375
v -28.7648 8.9375 -102.367
vt 28.7648 8.9375
f 94/215/4 58/216/4 95/217/4 96/218/4 97/219/4 

v -46.2023 1.8125 -74.0544
vt 74.0544 1.8125
vn 1 0 5.01929e-16
vt 102.367 1.8125
vt 102.367 8.875
v -46.2023 8.875 -74.0544
vt 74.0544 8.875
f 98/220/37 58/221/37 95/222/37 99/223/37 

usemtl Color_B03
vt -49.993 18.4171
vt -46.2023 74.0544
f 58/76/8 62/224/8 98/225/8

vt -54.3793 20.544
f 58/76/8 61/226/8 62/224/8

vt -58.3122 23.4241
f 58/76/8 60/227/8 61/226/8

f 58/76/8 59/77/8 60/227/8

v -46.2023 1.8125 -58.373
vt -46.2023 58.373
f 98/225/8 62/224/8 100/228/8

vt -45.2961 17.1126
f 63/229/8 100/228/8 62/224/8

v -37.4836 1.8125 -58.373
vt -37.4836 58.373
f 100/228/8 63/229/8 101/230/8

vt -40.4412 16.673
f 101/230/8 63/229/8 64/231/8

v -37.4836 1.8125 -44.5544
vt -37.4836 44.5544
f 101/230/8 64/231/8 102/232/8

vt -35.5863 17.1126
f 102/232/8 64/231/8 65/233/8

v -28.7648 1.8125 -44.5544
vt -28.7648 44.5544
f 102/232/8 65/233/8 103/234/8

vt -30.8894 18.4171
f 103/234/8 65/233/8 66/235/8

f 103/234/8 66/235/8 67/213/8

v -28.7648 1.8125 -68.3878
vt -28.7648 68.3878
f 103/234/8 67/213/8 104/236/8

v -28.7648 1.8125 -74.0544
vt -28.7648 74.0544
f 104/236/8 67/213/8 105/237/8

f 105/237/8 67/213/8 94/214/8

usemtl Color_L01
vt 102.367 8.9375
v -28.7648 8.9375 -74.0544
vt 74.0544 8.9375
f 105/220/5 94/221/5 97/238/5 106/239/5 

v -46.2023 8.9375 -74.0544
f 96/76/8 107/225/8 106/237/8 97/214/8 

vt -102.367 8.875
vn -1 0 -5.01929e-16
vt -74.0544 8.875
vt -74.0544 8.9375
vt -102.367 8.9375
f 95/240/38 99/241/38 107/242/38 96/243/38 

usemtl Color_H08
v -74.5148 8.875 -74.0544
vt -74.5148 74.0544
v -49.8979 8.875 -102.125
vt -49.8979 102.125
v -53.5301 8.875 -101.402
vt -53.5301 101.402
v -57.0371 8.875 -100.212
vt -57.0371 100.212
v -60.3586 8.875 -98.5737
vt -60.3586 98.5737
v -63.4379 8.875 -96.5162
vt -63.4379 96.5162
v -66.2223 8.875 -94.0744
vt -66.2223 94.0744
v -68.6642 8.875 -91.29
vt -68.6642 91.29
v -70.7217 8.875 -88.2106
vt -70.7217 88.2106
v -72.3597 8.875 -84.8891
vt -72.3597 84.8891
v -73.5501 8.875 -81.3822
vt -73.5501 81.3822
v -74.2726 8.875 -77.7499
vt -74.2726 77.7499
f 108/244/8 99/225/8 95/76/8 109/245/8 110/246/8 111/247/8 112/248/8 113/249/8 114/250/8 115/251/8 116/252/8 117/253/8 118/254/8 119/255/8 

vt -46.2023 8.875
vt -74.5148 8.875
v -74.5148 0.6875 -74.0544
vt -74.5148 0.6875
v -46.2023 0.6875 -74.0544
vt -46.2023 0.6875
vt -46.2023 1.8125
f 99/256/6 108/257/6 120/258/6 121/259/6 98/260/6 

vt -69.0223 8.875
vn -0.997859 0 -0.0654031
vt -72.7258 8.875
vn -0.991445 0 -0.130526
v -74.2726 0.6875 -77.7499
vt -72.7258 0.6875
vt -69.0223 0.6875
f 108/261/39 119/262/40 122/263/40 120/264/39 

vt -61.7661 8.875
vt -65.4696 8.875
vn -0.965926 0 -0.258819
v -73.5501 0.6875 -81.3822
vt -65.4696 0.6875
vt -61.7661 0.6875
f 119/265/40 118/266/41 123/267/41 122/268/40 

vt -53.4214 8.875
vt -57.1248 8.875
vn -0.92388 0 -0.382683
v -72.3597 0.6875 -84.8891
vt -57.1248 0.6875
vt -53.4214 0.6875
f 118/269/41 117/270/42 124/271/42 123/272/41 

vt -44.1309 8.875
vt -47.8343 8.875
vn -0.866025 0 -0.5
v -70.7217 0.6875 -88.2106
vt -47.8343 0.6875
vt -44.1309 0.6875
f 117/273/42 116/274/43 125/275/43 124/276/42 

vt -34.0536 8.875
vt -37.7571 8.875
vn -0.793353 0 -0.608761
v -68.6642 0.6875 -91.29
vt -37.7571 0.6875
vt -34.0536 0.6875
f 116/277/43 115/278/44 126/279/44 125/280/43 

vt -23.362 8.875
vt -27.0655 8.875
vn -0.707107 0 -0.707107
v -66.2223 0.6875 -94.0744
vt -27.0655 0.6875
vt -23.362 0.6875
f 115/281/44 114/282/45 127/283/45 126/284/44 

vt -12.239 8.875
vt -15.9424 8.875
vn -0.608761 0 -0.793353
v -63.4379 0.6875 -96.5162
vt -15.9424 0.6875
vt -12.239 0.6875
f 114/285/45 113/286/46 128/287/46 127/288/45 

vt -0.874854 8.875
vt -4.57831 8.875
vn -0.5 0 -0.866025
v -60.3586 0.6875 -98.5737
vt -4.57831 0.6875
vt -0.874854 0.6875
f 113/289/46 112/290/47 129/291/47 128/292/46 

vt 10.5359 8.875
vt 6.83247 8.875
vn -0.382683 0 -0.92388
v -57.0371 0.6875 -100.212
vt 6.83247 0.6875
vt 10.5359 0.6875
f 112/293/47 111/294/48 130/295/48 129/296/47 

vt 21.7981 8.875
vt 18.0947 8.875
vn -0.258819 0 -0.965926
v -53.5301 0.6875 -101.402
vt 18.0947 0.6875
vt 21.7981 0.6875
f 111/297/48 110/298/49 131/299/49 130/300/48 

vt 32.719 8.875
vt 29.0155 8.875
vn -0.130526 2.93484e-19 -0.991445
v -49.8979 0.6875 -102.125
vt 29.0155 0.6875
vt 32.719 0.6875
f 110/301/49 109/302/50 132/303/50 131/304/49 

vt 43.1117 8.875
vt 39.4083 8.875
vn -0.0654031 5.85712e-19 -0.997859
vt 39.4083 1.8125
v -46.2023 0.6875 -102.367
vt 39.4083 0.6875
vt 43.1117 0.6875
f 109/305/50 95/306/51 58/307/51 133/308/51 132/309/50 

usemtl FrontColor
vt 102.367 0.6875
vt 74.0544 0.6875
f 133/310/37 58/221/37 98/220/37 121/311/37 

vt 46.2023 74.0544
vt 74.5148 74.0544
vt 74.2726 77.7499
vt 73.5501 81.3822
vt 72.3597 84.8891
vt 70.7217 88.2106
vt 68.6642 91.29
vt 66.2223 94.0744
vt 63.4379 96.5162
vt 60.3586 98.5737
vt 57.0371 100.212
vt 53.5301 101.402
vt 49.8979 102.125
vt 46.2023 102.367
f 121/312/3 120/313/3 122/314/3 123/315/3 124/316/3 125/317/3 126/318/3 127/319/3 128/320/3 129/321/3 130/322/3 131/323/3 132/324/3 133/325/3 

usemtl Color_H07
vt -74.0544 1.8125
v -46.2023 1.8125 -68.3878
vt -68.3878 1.8125
v -46.2023 8.9375 -68.3878
vt -68.3878 8.9375
f 98/326/7 134/327/7 135/328/7 107/242/7 99/241/7 

usemtl Color_B03
v -46.2023 1.8125 -62.5086
vt -46.2023 62.5086
vt -46.2023 68.3878
f 98/225/8 136/329/8 134/330/8

f 98/225/8 100/228/8 136/329/8

usemtl Color_H07
vt -62.5086 1.8125
vt -58.373 1.8125
v -46.2023 9 -58.373
vt -58.373 9
v -46.2023 9 -62.5086
vt -62.5086 9
f 136/331/7 100/332/7 137/333/7 138/334/7 

vt -37.4836 1.8125
v -37.4836 9 -58.373
vt -37.4836 9
vt -46.2023 9
f 100/260/6 101/335/6 139/336/6 137/337/6 

usemtl Color_I01
vn -1 0 5.14192e-16
vt -44.5544 1.8125
v -37.4836 9 -44.5544
vt -44.5544 9
f 101/332/52 102/338/52 140/339/52 139/333/52 

vt -28.7648 1.8125
v -28.7648 9 -44.5544
vt -28.7648 9
f 102/335/6 103/340/6 141/341/6 140/336/6 

vt 44.5544 1.8125
vt 68.3878 1.8125
v -28.7648 8.9375 -68.3878
vt 68.3878 8.9375
v -28.7648 9 -68.3878
vt 68.3878 9
vt 44.5544 9
f 103/342/5 104/343/5 142/344/5 143/345/5 141/346/5 

usemtl Color_H07
f 104/343/5 105/220/5 106/239/5 142/344/5 

f 107/225/8 135/330/8 142/236/8 106/237/8 

usemtl Color_K02
vt 28.7648 9
v -46.2023 9 -68.3878
vt 46.2023 9
f 143/347/4 142/219/4 135/218/4 144/348/4 

usemtl Color_I01
vt -68.3878 9
f 134/327/7 136/331/7 138/334/7 144/349/7 135/328/7 

v -37.4836 9 -62.5086
vt -37.4836 62.5086
f 138/329/8 145/350/8 139/230/8 140/232/8 141/234/8 143/236/8 144/330/8 

usemtl Color_H07
f 138/329/8 137/228/8 139/230/8 145/350/8 

usemtl Color_B03
v 71.1541 1.8125 -70.587
vt 71.1541 70.587
f 93/196/8 83/197/8 146/351/8

v 77.6751 1.8125 -64.9359
vt 77.6751 64.9359
f 146/351/8 83/197/8 147/352/8

f 147/352/8 83/197/8 84/187/8

v 86.023 1.8125 -62.7517
vt 86.023 62.7517
f 147/352/8 84/187/8 148/353/8

v 94.476 1.8125 -64.485
vt 94.476 64.485
f 148/353/8 84/187/8 149/354/8

v 101.291 1.8125 -69.7782
vt 101.291 69.7782
f 149/354/8 84/187/8 150/355/8

f 150/355/8 84/187/8 86/189/8

vt -115.655 0
vn -0.975198 0 -0.221332
vt -107.026 0
vn -0.776736 0 -0.629826
vt -107.026 1.8125
vt -115.655 1.8125
f 9/356/53 10/357/54 150/358/54 86/359/53 

vt -122.798 0
vt -114.169 0
vn -0.418068 0 -0.908416
vt -114.169 1.8125
vt -122.798 1.8125
f 10/360/54 11/361/55 149/362/55 150/363/54 

vt -105.503 0
vt -96.8745 0
vn 0.0268277 0 -0.99964
vt -96.8745 1.8125
vt -105.503 1.8125
f 11/364/55 12/365/56 148/366/56 149/367/55 

vt -67.3378 0
vt -58.7089 0
vn 0.466191 0 -0.884684
vt -58.7089 1.8125
vt -67.3378 1.8125
f 12/368/56 13/369/57 147/370/57 148/371/56 

vt -16.1733 0
vt -7.54444 0
vn 0.809399 0 -0.587258
vt -7.54444 1.8125
vt -16.1733 1.8125
f 13/372/57 15/373/58 146/374/58 147/375/57 

vt 37.4371 0
vt 46.0659 0
vn 0.985666 0 -0.168708
vt 46.0659 1.8125
vt 37.4371 1.8125
f 15/376/58 16/377/59 93/378/59 146/379/58 

vt 82.436 0
vt 91.0649 0
vn 0.958635 0 0.284639
vt 91.0649 1.8125
vt 82.436 1.8125
f 16/380/59 17/381/60 92/382/60 93/383/59 

vt 109.542 0
v 72.589 0 -94.6512
vt 118.171 0
vn 0.73388 0 0.679279
vt 118.171 1.8125
vt 109.542 1.8125
f 17/384/60 151/385/61 91/386/61 92/387/60 

usemtl FrontColor
vt -72.589 94.6512
f 17/19/3 18/20/3 151/388/3

v 79.7353 0 -99.4874
vt -79.7353 99.4874
f 151/388/3 18/20/3 152/389/3

v 94.272 0 -99.0972
vt -94.272 99.0972
f 152/389/3 18/20/3 153/390/3

f 153/390/3 18/20/3 8/10/3

usemtl Color_B03
vt -85.6271 0
vn 0.519238 0 -0.85463
vt 30.0604 0
vt 30.0604 1.8125
vt -85.6271 1.8125
f 8/391/62 18/392/62 57/393/62 85/394/62 

usemtl FrontColor
vt -54.8122 0
vt 128.049 0
vt 128.049 1.8125
vt -54.8122 1.8125
f 18/395/4 47/396/4 56/397/4 57/398/4 

vt -148.111 0
vt -31.048 0
vt -31.048 1.8125
vt -148.111 1.8125
f 47/399/7 48/400/7 55/401/7 56/402/7 

usemtl Color_B03
vt -128.049 0
vt -64.325 0
vt -64.325 1.8125
vt -128.049 1.8125
f 48/403/6 43/404/6 54/405/6 55/406/6 

usemtl FrontColor
vt -22.545 0
vn 0.84593 0 -0.533293
vt -17.4175 0
vn 0.814611 0 -0.580007
vt -17.4175 1.8125
v 156.656 1.8125 -83.8643
vt -22.545 1.8125
f 6/407/63 8/408/64 85/409/64 154/410/63 

usemtl Color_B03
vt 156.656 83.8643
f 85/186/8 4/188/8 154/411/8

vt 159.142 39.7093
f 154/411/8 4/188/8 3/412/8

v 159.142 1.8125 -79.3799
vt 159.142 79.3799
f 154/411/8 3/412/8 155/413/8

v 161.11 1.8125 -44.4445
vt 161.11 44.4445
f 155/413/8 3/412/8 156/414/8

usemtl FrontColor
vt 97.7253 0
v 161.11 0 -44.4445
vt 102.853 0
vn 0.943588 0 0.331123
vt 102.853 1.8125
vt 97.7253 1.8125
f 2/415/2 157/416/65 156/417/65 3/418/2 

v 161.11 0 -74.6447
vt -161.11 74.6447
vt -161.11 44.4445
f 2/7/3 158/419/3 157/420/3

f 2/7/3 5/6/3 158/419/3

vt 7.12369 0
vn 0.943588 0 -0.331123
vt 12.2512 0
vn 0.900451 0 -0.434958
vt 12.2512 1.8125
v 161.11 1.8125 -74.6447
vt 7.12369 1.8125
f 158/421/66 5/422/67 155/423/67 159/424/66 

vt -7.74339 0
vt -2.61588 0
vt -2.61588 1.8125
vt -7.74339 1.8125
f 5/425/67 6/426/63 154/427/63 155/428/67 

usemtl Color_B03
vt 161.11 74.6447
f 155/413/8 156/414/8 159/429/8

v 162.533 1.8125 -49.3705
vt 162.533 49.3705
f 159/429/8 156/414/8 160/430/8

usemtl FrontColor
vt 87.4145 0
v 162.533 0 -49.3705
vt 92.542 0
vn 0.974795 0 0.223102
vt 92.542 1.8125
vt 87.4145 1.8125
f 157/431/65 161/432/68 160/433/68 156/434/65 

v 162.533 0 -69.7187
vt -162.533 69.7187
vt -162.533 49.3705
f 157/420/3 162/435/3 161/436/3

f 157/420/3 158/419/3 162/435/3

vt 21.8683 0
vn 0.974795 0 -0.223102
vt 26.9958 0
vt 26.9958 1.8125
v 162.533 1.8125 -69.7187
vt 21.8683 1.8125
f 162/437/69 158/438/66 159/439/66 163/440/69 

usemtl Color_B03
vt 162.533 69.7187
f 159/429/8 160/430/8 163/441/8

v 163.394 1.8125 -54.4252
vt 163.394 54.4252
f 163/441/8 160/430/8 164/442/8

usemtl FrontColor
vt 75.9662 0
v 163.394 0 -54.4252
vt 81.0937 0
vn 0.993679 0 0.112261
vt 81.0937 1.8125
vt 75.9662 1.8125
f 161/443/68 165/444/70 164/445/70 160/446/68 

v 163.394 0 -64.664
vt -163.394 64.664
vt -163.394 54.4252
f 161/436/3 166/447/3 165/448/3

f 161/436/3 162/435/3 166/447/3

vt 36.304 0
vn 0.993679 0 -0.112261
vt 41.4315 0
vt 41.4315 1.8125
v 163.394 1.8125 -64.664
vt 36.304 1.8125
f 166/449/71 162/450/69 163/451/69 167/452/71 

usemtl Color_B03
vt 163.394 64.664
f 163/441/8 164/442/8 167/453/8

v 163.682 1.8125 -59.5446
vt 163.682 59.5446
f 167/453/8 164/442/8 168/454/8

usemtl FrontColor
vt 63.525 0
v 163.682 0 -59.5446
vt 68.6525 0
vn 1 0 1.14673e-16
vt 68.6525 1.8125
vt 63.525 1.8125
f 165/455/70 169/456/72 168/457/72 164/458/70 

vt -163.682 59.5446
f 165/448/3 166/447/3 169/459/3

vt 50.2484 0
vt 55.3759 0
vt 55.3759 1.8125
vt 50.2484 1.8125
f 169/460/72 166/461/71 167/462/71 168/463/72 

v 101.149 0 -93.8847
vt -101.149 93.8847
f 153/390/3 8/10/3 170/464/3

v 105.011 0 -86.1683
vt -105.011 86.1683
f 170/464/3 8/10/3 171/465/3

f 171/465/3 8/10/3 9/11/3

usemtl Color_B03
vt -85.5479 0
vn -0.972522 0 0.232812
vt -76.919 0
vt -76.919 1.8125
vt -85.5479 1.8125
f 171/466/73 9/467/53 86/468/53 87/469/73 

vt -38.6857 0
vn -0.769258 0 0.638938
vt -30.0568 0
vt -30.0568 1.8125
vt -38.6857 1.8125
f 170/470/74 171/471/73 87/472/73 88/473/74 

vt 15.2658 0
vn -0.604075 0 0.796928
vt 23.8947 0
vt 23.8947 1.8125
vt 15.2658 1.8125
f 153/474/75 170/475/74 88/476/74 89/477/75 

v 86.9075 0 -93.2577
vt 126.04 0
vn 0.621313 0 0.783563
vt 135.438 0
vt 135.438 1.8125
v 86.9075 1.8125 -93.2577
vt 126.04 1.8125
f 172/478/76 153/479/76 89/480/76 173/481/76 

usemtl FrontColor
vt -86.9075 93.2577
f 152/389/3 153/390/3 172/482/3

usemtl Color_B03
vt -5.04138 0
vn -0.655755 0 0.754973
vt 4.45862 0
vt 4.45862 1.8125
vt -5.04138 1.8125
f 152/483/77 172/484/77 173/485/77 90/486/77 

vt 86.9075 93.2577
f 89/192/8 90/193/8 173/487/8

vt 113.165 0
vt 121.794 0
vn 0.560461 0 0.828181
vt 121.794 1.8125
vt 113.165 1.8125
f 151/488/61 152/489/78 90/490/78 91/491/61 

