# Alias OBJ Model File
# Exported from SketchUp, (c) 2000-2012 Trimble Navigation Limited
# File units = inches

mtllib LOHO.mtl

g Mesh1 Model

usemtl Color_L01
v 0.0305033 10 -143.619
vt 0.0305033 143.619
vn 0 1 -0
v 0.0305033 10 -130.244
vt 0.0305033 130.244
v 12.6413 10 -130.244
vt 12.6413 130.244
v 12.6413 10 -139.367
vt 12.6413 139.367
v 12.6413 10 -143.619
vt 12.6413 143.619
f 1/1/1 2/2/1 3/3/1 4/4/1 5/5/1 

v 0.0305033 1.8125 -143.619
vt -143.619 1.8125
vn -1 0 -0
v 0.0305033 1.8125 -130.244
vt -130.244 1.8125
vt -130.244 10
vt -143.619 10
f 6/6/2 7/7/2 2/8/2 1/9/2 

usemtl Color_I01
v 0.0305033 1.8125 -115.588
vt -115.588 1.8125
v 0.0305033 10.0625 -115.588
vt -115.588 10.0625
v 0.0305033 10.0625 -130.244
vt -130.244 10.0625
f 7/7/2 8/10/2 9/11/2 10/12/2 2/8/2 

usemtl Color_L01
v 0.0305033 1.8125 -109.963
vt -109.963 1.8125
v 0.0305033 10.0625 -109.963
vt -109.963 10.0625
f 8/10/2 11/13/2 12/14/2 9/11/2 

vt -94.1751 1.8125
vn -0.856568 0 0.516034
v 1.21656 1.8125 -107.994
vt -91.8767 1.8125
v 1.21656 10.0625 -107.994
vt -91.8767 10.0625
vt -94.1751 10.0625
f 11/15/3 13/16/3 14/17/3 12/18/3 

vt 1.21656 1.8125
vn 0 0 1
v 12.6413 1.8125 -107.994
vt 12.6413 1.8125
v 12.6413 10.0625 -107.994
vt 12.6413 10.0625
vt 1.21656 10.0625
f 13/19/4 15/20/4 16/21/4 14/22/4 

usemtl Color_I01
v 47.4726 1.8125 -107.994
vt 47.4726 1.8125
v 47.4726 10.0625 -107.994
vt 47.4726 10.0625
f 15/20/4 17/23/4 18/24/4 16/21/4 

usemtl Color_I02
v 71.7805 1.8125 -107.994
vt 71.7805 1.8125
v 71.7805 10.0625 -107.994
vt 71.7805 10.0625
f 17/23/4 19/25/4 20/26/4 18/24/4 

vt 107.994 1.8125
vn 1 0 -0
v 71.7805 1.8125 -119.432
vt 119.432 1.8125
v 71.7805 10.0625 -119.432
vt 119.432 10.0625
vt 107.994 10.0625
f 19/27/5 21/28/5 22/29/5 20/30/5 

v 71.7805 1.8125 -126.557
vt 126.557 1.8125
v 71.7805 10.0625 -126.557
vt 126.557 10.0625
f 21/28/5 23/31/5 24/32/5 22/29/5 

vt 8.80741 1.8125
vn 0.5451 0 -0.838371
v 66.1091 1.8125 -130.244
vt 15.5722 1.8125
v 66.1091 10.0625 -130.244
vt 15.5722 10.0625
vt 8.80741 10.0625
f 23/33/6 25/34/6 26/35/6 24/36/6 

usemtl Color_I01
v 52.0788 1.8125 -139.367
vt 32.3074 1.8125
v 52.0788 10.0625 -139.367
vt 32.3074 10.0625
f 25/34/6 27/37/6 28/38/6 26/35/6 

vt -52.0788 1.8125
vn 0 0 -1
v 30.6413 1.8125 -139.367
vt -30.6413 1.8125
v 30.6413 10.0625 -139.367
vt -30.6413 10.0625
vt -52.0788 10.0625
f 27/39/7 29/40/7 30/41/7 28/42/7 

vt -139.367 1.8125
v 30.6413 1.8125 -126.557
vt -126.557 1.8125
v 30.6413 10.0625 -126.557
vt -126.557 10.0625
vt -139.367 10.0625
f 29/43/2 31/44/2 32/45/2 30/46/2 

v 21.3913 1.8125 -126.557
vt -21.3913 1.8125
v 21.3913 10.0625 -126.557
vt -21.3913 10.0625
f 31/40/7 33/47/7 34/48/7 32/41/7 

v 21.3913 1.8125 -119.432
vt -119.432 1.8125
v 21.3913 10.0625 -119.432
vt -119.432 10.0625
f 33/44/2 35/49/2 36/50/2 34/45/2 

v 12.6413 1.8125 -119.432
vt -12.6413 1.8125
v 12.6413 10.0625 -119.432
vt -12.6413 10.0625
f 35/47/7 37/51/7 38/52/7 36/48/7 

v 12.6413 1.8125 -130.244
vt 130.244 1.8125
vt 130.244 10
v 12.6413 10.0625 -130.244
vt 130.244 10.0625
f 37/28/5 39/53/5 3/54/5 40/55/5 38/29/5 

usemtl Color_L01
v 12.6413 1.8125 -139.367
vt 139.367 1.8125
vt 139.367 10
f 39/53/5 41/56/5 4/57/5 3/54/5 

v 12.6413 1.8125 -143.619
vt 143.619 1.8125
vt 143.619 10
f 41/56/5 42/58/5 5/59/5 4/57/5 

vt -0.0305033 1.8125
vt -0.0305033 10
vt -12.6413 10
f 42/51/7 6/60/7 1/61/7 5/62/7 

usemtl Color_B03
vt -0.0305033 10.0625
f 3/62/7 2/61/7 10/63/7 40/52/7 

usemtl Color_I01
vt 0.0305033 115.588
v 12.6413 10.0625 -115.588
vt 12.6413 115.588
vt 12.6413 119.432
f 9/64/1 43/65/1 38/66/1 40/3/1 10/2/1 

usemtl Color_L01
vt 0.0305033 109.963
vt 1.21656 107.994
vt 12.6413 107.994
f 43/65/1 9/64/1 12/67/1 14/68/1 16/69/1 

usemtl Color_I01
vt 21.3913 119.432
vt 47.4726 107.994
v 47.4726 10.0625 -123.182
vt 47.4726 123.182
v 54.7226 10.0625 -123.182
vt 54.7226 123.182
v 54.7226 10.0625 -130.244
vt 54.7226 130.244
vt 66.1091 130.244
vt 52.0788 139.367
vt 30.6413 139.367
vt 30.6413 126.557
vt 21.3913 126.557
f 36/70/1 38/66/1 43/65/1 16/69/1 18/71/1 44/72/1 45/73/1 46/74/1 26/75/1 28/76/1 30/77/1 32/78/1 34/79/1 

usemtl Color_I02
vt 71.7805 126.557
vt 71.7805 107.994
vt 71.7805 119.432
f 24/80/1 26/75/1 46/74/1 45/73/1 44/72/1 18/71/1 20/81/1 22/82/1 

