# Alias OBJ Model File
# Exported from SketchUp, (c) 2000-2012 Trimble Navigation Limited
# File units = inches

mtllib CA.mtl

g Mesh1 Model

usemtl Color_L01
v -83.9523 8.9375 -74.0544
vt -83.9523 74.0544
vn 0 1 -0
v -107.997 8.9375 -74.0544
vt -107.997 74.0544
v -107.997 8.9375 -52.464
vt -107.997 52.464
v -123.31 8.9375 -52.464
vt -123.31 52.464
v -123.31 8.9375 -35.2765
vt -123.31 35.2765
v -71.5598 8.9375 -35.2765
vt -71.5598 35.2765
v -71.5598 8.9375 -46.089
vt -71.5598 46.089
v -73.4412 8.9375 -47.9181
vt -73.4412 47.9181
v -75.191 8.9375 -49.8734
vt -75.191 49.8734
v -76.8007 8.9375 -51.9455
vt -76.8007 51.9455
v -78.2626 8.9375 -54.1245
vt -78.2626 54.1245
v -79.5696 8.9375 -56.3998
vt -79.5696 56.3998
v -80.7154 8.9375 -58.7603
vt -80.7154 58.7603
v -81.6945 8.9375 -61.1947
vt -81.6945 61.1947
v -82.502 8.9375 -63.6913
vt -82.502 63.6913
v -83.1342 8.9375 -66.238
vt -83.1342 66.238
v -83.588 8.9375 -68.8224
vt -83.588 68.8224
v -83.8611 8.9375 -71.432
vt -83.8611 71.432
f 1/1/1 2/2/1 3/3/1 4/4/1 5/5/1 6/6/1 7/7/1 8/8/1 9/9/1 10/10/1 11/11/1 12/12/1 13/13/1 14/14/1 15/15/1 16/16/1 17/17/1 18/18/1 

vt 107.997 8.9375
vn 0 0 -1
vt 83.9523 8.9375
v -83.9523 1.0625 -74.0544
vt 83.9523 1.0625
v -107.997 1.0625 -74.0544
vt 107.997 1.0625
f 2/19/2 1/20/2 19/21/2 20/22/2 

vt 76.9274 8.9375
vn 0.999396 0 -0.0347541
vt 74.3034 8.9375
vn 0.997584 0 -0.0694663
v -83.8611 1.0625 -71.432
vt 74.3034 1.0625
vt 76.9274 1.0625
f 1/23/3 18/24/4 21/25/4 19/26/3 

vt 79.7735 8.9375
vt 77.1495 8.9375
vn 0.990349 0 -0.138597
v -83.588 1.0625 -68.8224
vt 77.1495 1.0625
vt 79.7735 1.0625
f 18/27/4 17/28/5 22/29/5 21/30/4 

vt 82.2405 8.9375
vt 79.6166 8.9375
vn 0.978329 0 -0.207058
v -83.1342 1.0625 -66.238
vt 79.6166 1.0625
vt 82.2405 1.0625
f 17/31/5 16/32/6 23/33/6 22/34/5 

vt 84.3165 8.9375
vt 81.6926 8.9375
vn 0.961582 0 -0.274519
v -82.502 1.0625 -63.6913
vt 81.6926 1.0625
vt 84.3165 1.0625
f 16/35/6 15/36/7 24/37/7 23/38/6 

vt 85.9916 8.9375
vt 83.3676 8.9375
vn 0.940189 0 -0.340653
v -81.6945 1.0625 -61.1947
vt 83.3676 1.0625
vt 85.9916 1.0625
f 15/39/7 14/40/8 25/41/8 24/42/7 

vt 87.2574 8.9375
vt 84.6335 8.9375
vn 0.914254 0 -0.405142
v -80.7154 1.0625 -58.7603
vt 84.6335 1.0625
vt 87.2574 1.0625
f 14/43/8 13/44/9 26/45/9 25/46/8 

vt 88.1081 8.9375
vt 85.4842 8.9375
vn 0.883902 0 -0.467673
v -79.5696 1.0625 -56.3998
vt 85.4842 1.0625
vt 88.1081 1.0625
f 13/47/9 12/48/10 27/49/10 26/50/9 

vt 88.5394 8.9375
vt 85.9155 8.9375
vn 0.849279 0 -0.527944
v -78.2626 1.0625 -54.1245
vt 85.9155 1.0625
vt 88.5394 1.0625
f 12/51/10 11/52/11 28/53/11 27/54/10 

vt 88.5493 8.9375
vt 85.9253 8.9375
vn 0.810553 0 -0.585665
v -76.8007 1.0625 -51.9455
vt 85.9253 1.0625
vt 88.5493 1.0625
f 11/55/11 10/56/12 29/57/12 28/58/11 

vt 88.1377 8.9375
vt 85.5137 8.9375
vn 0.767911 0 -0.640557
v -75.191 1.0625 -49.8734
vt 85.5137 1.0625
vt 88.1377 1.0625
f 10/59/12 9/60/13 30/61/13 29/62/12 

vt 87.3066 8.9375
vt 84.6826 8.9375
vn 0.721559 0 -0.692353
v -73.4412 1.0625 -47.9181
vt 84.6826 1.0625
vt 87.3066 1.0625
f 9/63/13 8/64/14 31/65/14 30/66/13 

vt 86.06 8.9375
vt 83.4361 8.9375
vn 0.697061 0 -0.717012
v -71.5598 1.0625 -46.089
vt 83.4361 1.0625
vt 86.06 1.0625
f 8/67/14 7/68/15 32/69/15 31/70/14 

vt 46.089 8.9375
vn 1 0 -0
vt 35.2765 8.9375
v -71.5598 1.0625 -35.2765
vt 35.2765 1.0625
vt 46.089 1.0625
f 7/71/16 6/72/16 33/73/16 32/74/16 

vt -71.5598 8.9375
vn 0 0 1
vt -123.31 8.9375
v -123.31 1.0625 -35.2765
vt -123.31 1.0625
vt -71.5598 1.0625
f 6/75/17 5/76/17 34/77/17 33/78/17 

vt -35.2765 8.9375
vn -1 0 -0
vt -52.464 8.9375
v -123.31 1.0625 -52.464
vt -52.464 1.0625
vt -35.2765 1.0625
f 5/79/18 4/80/18 35/81/18 34/82/18 

vt 123.31 8.9375
v -107.997 1.0625 -52.464
vt 123.31 1.0625
f 4/83/2 3/19/2 36/22/2 35/84/2 

vt -74.0544 8.9375
vt -74.0544 1.0625
f 3/80/18 2/85/18 20/86/18 36/81/18 

usemtl FrontColor
vt 107.997 74.0544
vn 0 -1 -0
vt 83.9523 74.0544
vt 83.8611 71.432
vt 83.588 68.8224
vt 83.1342 66.238
vt 82.502 63.6913
vt 81.6945 61.1947
vt 80.7154 58.7603
vt 79.5696 56.3998
vt 78.2626 54.1245
vt 76.8007 51.9455
vt 75.191 49.8734
vt 73.4412 47.9181
vt 71.5598 46.089
vt 71.5598 35.2765
vt 123.31 35.2765
vt 123.31 52.464
vt 107.997 52.464
f 20/87/19 19/88/19 21/89/19 22/90/19 23/91/19 24/92/19 25/93/19 26/94/19 27/95/19 28/96/19 29/97/19 30/98/19 31/99/19 32/100/19 33/101/19 34/102/19 35/103/19 36/104/19 

