# Alias OBJ Model File
# Exported from SketchUp, (c) 2000-2012 Trimble Navigation Limited
# File units = inches

mtllib LEVIS.mtl

g Mesh1 Model

usemtl Color_B03
v -109.8 1.8125 -96.5343
vt -109.8 96.5343
vn 0 1 -0
v -110.461 1.8125 -98.6314
vt -110.461 98.6314
v -125.684 1.8125 -98.6314
vt -125.684 98.6314
v -125.684 1.8125 -82.7698
vt -125.684 82.7698
v -116.028 1.8125 -82.7698
vt -116.028 82.7698
v -116.028 1.8125 -90.9377
vt -116.028 90.9377
v -106.371 1.8125 -90.9377
vt -106.371 90.9377
v -107.74 1.8125 -92.6586
vt -107.74 92.6586
v -108.889 1.8125 -94.5335
vt -108.889 94.5335
f 1/1/1 2/2/1 3/3/1 4/4/1 5/5/1 6/6/1 7/7/1 8/8/1 9/9/1 

usemtl Color_I01
vt 125.081 1.8125
vn 0.933598 0 -0.358322
vt 127.28 1.8125
vn 0.953729 0 -0.300667
v -110.461 8.4375 -98.6314
vt 127.28 8.4375
v -109.8 8.4375 -96.5343
vt 125.081 8.4375
f 1/10/2 2/11/3 10/12/3 11/13/2 

usemtl Color_K01
vt 117.108 1.8125
vn 0.983259 1.49998e-18 -0.182211
v -110.862 1.8125 -100.793
vt 119.306 1.8125
vn 0.992548 7.51393e-19 -0.121853
v -110.862 8.5 -100.793
vt 119.306 8.5
v -110.461 8.5 -98.6314
vt 117.108 8.5
vt 117.108 8.4375
f 2/14/4 12/15/5 13/16/5 14/17/4 10/18/4 

vt 107.372 1.8125
v -110.996 1.8125 -102.988
vt 109.571 1.8125
vn 1 0 -3.03449e-15
v -110.996 8.5 -102.988
vt 109.571 8.5
vt 107.372 8.5
f 12/19/5 15/20/6 16/21/6 13/22/5 

vt 96.0207 1.8125
v -110.862 1.8125 -105.183
vt 98.2195 1.8125
vn 0.992548 0 0.121853
v -110.862 8.5 -105.183
vt 98.2195 8.5
vt 96.0207 8.5
f 15/23/6 17/24/7 18/25/7 16/26/6 

vt 83.2216 1.8125
v -110.461 1.8125 -107.345
vt 85.4204 1.8125
vn 0.983259 0 0.182211
v -110.461 8.5 -107.345
vt 85.4204 8.5
vt 83.2216 8.5
f 17/27/7 19/28/8 20/29/8 18/30/7 

usemtl Color_L01
vt 69.1657 1.8125
vn 0.953729 0 0.300667
v -109.8 1.8125 -109.442
vt 71.3645 1.8125
vn 0.933598 0 0.358322
v -109.8 8.5 -109.442
vt 71.3645 8.5
vt 69.1657 8.5
f 19/31/9 21/32/10 22/33/10 20/34/9 

vt 54.0626 1.8125
v -108.889 1.8125 -111.443
vt 56.2614 1.8125
vn 0.882978 0 0.469414
v -108.889 8.5 -111.443
vt 56.2614 8.5
vt 54.0626 8.5
f 21/35/10 23/36/11 24/37/11 22/38/10 

vt 38.1374 1.8125
v -107.74 1.8125 -113.317
vt 40.3362 1.8125
vn 0.819199 0 0.573509
v -107.74 8.5 -113.317
vt 40.3362 8.5
vt 38.1374 8.5
f 23/39/11 25/40/12 26/41/12 24/42/11 

vt 21.6275 1.8125
v -106.371 1.8125 -115.038
vt 23.8263 1.8125
vn 0.782664 0 0.622444
v -106.371 8.5 -115.038
vt 23.8263 8.5
vt 21.6275 8.5
f 25/43/12 27/44/13 28/45/13 26/46/12 

vt 156.041 1.8125
vn 0.669947 0 -0.742409
v -116.948 1.8125 -124.582
vt 170.286 1.8125
v -116.948 8.5 -124.582
vt 170.286 8.5
vt 156.041 8.5
f 27/47/14 29/48/14 30/49/14 28/50/14 

vt 116.948 1.8125
vn 0 0 -1
v -125.684 1.8125 -124.582
vt 125.684 1.8125
v -125.684 8.5 -124.582
vt 125.684 8.5
vt 116.948 8.5
f 29/51/15 31/52/15 32/53/15 30/54/15 

vt -124.582 1.8125
vn -1 0 -0
v -125.684 1.8125 -107.345
vt -107.345 1.8125
v -125.684 8.5 -107.345
vt -107.345 8.5
vt -124.582 8.5
f 31/55/16 33/56/16 34/57/16 32/58/16 

usemtl Color_K01
vt -98.6314 1.8125
v -125.684 8.4375 -98.6314
vt -98.6314 8.4375
v -125.684 8.5 -98.6314
vt -98.6314 8.5
f 33/56/16 3/59/16 35/60/16 36/61/16 34/57/16 

usemtl Color_B03
vt -125.684 1.8125
vn 0 0 1
vt -110.461 1.8125
vt -110.461 8.4375
vt -125.684 8.4375
f 3/62/17 2/63/17 10/64/17 35/65/17 

vt -125.684 8.5
vt -110.461 8.5
f 36/66/17 35/65/17 10/64/17 14/67/17 

usemtl Color_I01
v -125.684 8.4375 -82.7698
v -116.028 8.4375 -82.7698
v -116.028 8.4375 -90.9377
v -106.371 8.4375 -90.9377
v -107.74 8.4375 -92.6586
v -108.889 8.4375 -94.5335
f 11/1/1 10/2/1 35/3/1 37/4/1 38/5/1 39/6/1 40/7/1 41/8/1 42/9/1 

vt -82.7698 1.8125
vt -82.7698 8.4375
f 3/59/16 4/68/16 37/69/16 35/60/16 

vt -116.028 1.8125
vt -116.028 8.4375
f 4/62/17 5/70/17 38/71/17 37/65/17 

vt 82.7698 1.8125
vn 1 0 -0
vt 90.9377 1.8125
vt 90.9377 8.4375
vt 82.7698 8.4375
f 5/72/18 6/73/18 39/74/18 38/75/18 

vt -106.371 1.8125
vt -106.371 8.4375
f 6/70/17 7/76/17 40/77/17 39/71/17 

vt 137.384 1.8125
vn 0.782664 0 -0.622444
vt 139.583 1.8125
vn 0.819199 0 -0.573509
vt 139.583 8.4375
vt 137.384 8.4375
f 7/78/19 8/79/20 41/80/20 40/81/19 

vt 135.295 1.8125
vt 137.494 1.8125
vn 0.882978 0 -0.469414
vt 137.494 8.4375
vt 135.295 8.4375
f 8/82/20 9/83/21 42/84/21 41/85/20 

vt 131.174 1.8125
vt 133.373 1.8125
vt 133.373 8.4375
vt 131.174 8.4375
f 9/86/21 1/87/2 11/88/2 42/89/21 

usemtl Color_K01
vt -110.862 105.183
vt -110.461 107.345
vt -125.684 107.345
vt -110.862 100.793
vt -110.996 102.988
f 18/90/1 20/91/1 34/92/1 36/3/1 14/2/1 13/93/1 16/94/1 

usemtl Color_L01
vt -125.684 124.582
vt -109.8 109.442
vt -108.889 111.443
vt -107.74 113.317
vt -106.371 115.038
vt -116.948 124.582
f 32/95/1 34/92/1 20/91/1 22/96/1 24/97/1 26/98/1 28/99/1 30/100/1 

