# Alias OBJ Model File
# Exported from SketchUp, (c) 2000-2012 Trimble Navigation Limited
# File units = inches

mtllib SHOES.mtl

g Mesh1 Model

usemtl Color_L01
v -34.6803 9 -108.23
vt -34.6803 108.23
vn 0 1 -0
v -31.9915 9 -108.383
vt -31.9915 108.383
v -29.3106 9 -111.014
vt -29.3106 111.014
v -29.3106 9 -132.266
vt -29.3106 132.266
v -42.8106 9 -132.266
vt -42.8106 132.266
v -53.3731 9 -132.266
vt -53.3731 132.266
v -53.3106 9 -139.454
vt -53.3106 139.454
v -61.4356 9 -139.454
vt -61.4356 139.454
v -61.4356 9 -145.516
vt -61.4356 145.516
v -87.7481 9 -145.516
vt -87.7481 145.516
v -87.7481 9 -134.266
vt -87.7481 134.266
v -87.6519 9 -132.798
vt -87.6519 132.798
v -87.3648 9 -131.354
vt -87.3648 131.354
v -86.8918 9 -129.961
vt -86.8918 129.961
v -86.2409 9 -128.641
vt -86.2409 128.641
v -85.4233 9 -127.418
vt -85.4233 127.418
v -84.4531 9 -126.311
vt -84.4531 126.311
v -83.3467 9 -125.341
vt -83.3467 125.341
v -82.1231 9 -124.523
vt -82.1231 124.523
v -80.8033 9 -123.873
vt -80.8033 123.873
v -79.4098 9 -123.399
vt -79.4098 123.399
v -77.9665 9 -123.112
vt -77.9665 123.112
v -76.13 9 -123.511
vt -76.13 123.511
v -74.2556 9 -123.646
vt -74.2556 123.646
v -72.3808 9 -123.516
vt -72.3808 123.516
v -70.5432 9 -123.123
vt -70.5432 123.123
v -68.7794 9 -122.474
vt -68.7794 122.474
v -67.1248 9 -121.583
vt -67.1248 121.583
v -65.6125 9 -120.467
vt -65.6125 120.467
v -64.2726 9 -119.149
vt -64.2726 119.149
v -63.132 9 -117.656
vt -63.132 117.656
v -62.2136 9 -116.016
vt -62.2136 116.016
v -61.5356 9 -114.263
vt -61.5356 114.263
v -61.1116 9 -112.433
vt -61.1116 112.433
v -58.5665 9 -111.552
vt -58.5665 111.552
v -55.989 9 -110.771
vt -55.989 110.771
v -53.383 9 -110.091
vt -53.383 110.091
v -50.7525 9 -109.513
vt -50.7525 109.513
v -48.1015 9 -109.039
vt -48.1015 109.039
v -45.434 9 -108.668
vt -45.434 108.668
v -42.754 9 -108.401
vt -42.754 108.401
v -40.0657 9 -108.239
vt -40.0657 108.239
v -37.3731 9 -108.182
vt -37.3731 108.182
f 1/1/1 2/2/1 3/3/1 4/4/1 5/5/1 6/6/1 7/7/1 8/8/1 9/9/1 10/10/1 11/11/1 12/12/1 13/13/1 14/14/1 15/15/1 16/16/1 17/17/1 18/18/1 19/19/1 20/20/1 21/21/1 22/22/1 23/23/1 24/24/1 25/25/1 26/26/1 27/27/1 28/28/1 29/29/1 30/30/1 31/31/1 32/32/1 33/33/1 34/34/1 35/35/1 36/36/1 37/37/1 38/38/1 39/39/1 40/40/1 41/41/1 42/42/1 43/43/1 

v -34.6803 1.8125 -108.23
vt -28.4736 1.8125
vn 0.0373489 0 0.999302
v -31.9915 1.8125 -108.383
vt -25.7804 1.8125
vn 0.0568297 0 0.998384
vt -25.7804 9
vt -28.4736 9
f 44/44/2 45/45/3 2/46/3 1/47/2 

vt 53.0756 1.8125
vn 0.700384 0 0.713766
v -29.3106 1.8125 -111.014
vt 56.8315 1.8125
vt 56.8315 9
vt 53.0756 9
f 45/48/4 46/49/4 3/50/4 2/51/4 

vt 111.014 1.8125
vn 1 0 -0
v -29.3106 1.8125 -132.266
vt 132.266 1.8125
vt 132.266 9
vt 111.014 9
f 46/52/5 47/53/5 4/54/5 3/55/5 

usemtl Color_K01
v -29.3106 1.8125 -138.891
vt 138.891 1.8125
v -29.3106 9.125 -138.891
vt 138.891 9.125
v -29.3106 9.125 -132.266
vt 132.266 9.125
f 47/53/5 48/56/5 49/57/5 50/58/5 4/54/5 

usemtl Color_L01
v -29.3106 1.8125 -145.516
vt 145.516 1.8125
v -29.3106 9.25 -145.516
vt 145.516 9.25
v -29.3106 9.25 -138.891
vt 138.891 9.25
f 48/56/5 51/59/5 52/60/5 53/61/5 49/57/5 

vt 29.3106 1.8125
vn 0 0 -1
v -42.8106 1.8125 -145.516
vt 42.8106 1.8125
v -42.8106 9.25 -145.516
vt 42.8106 9.25
vt 29.3106 9.25
f 51/62/6 54/63/6 55/64/6 52/65/6 

vt -145.516 1.8125
vn -1 0 -0
v -42.8106 1.8125 -138.891
vt -138.891 1.8125
v -42.8106 9.125 -138.891
vt -138.891 9.125
v -42.8106 9.25 -138.891
vt -138.891 9.25
vt -145.516 9.25
f 54/66/7 56/67/7 57/68/7 58/69/7 55/70/7 

usemtl Color_K01
v -42.8106 1.8125 -132.266
vt -132.266 1.8125
vt -132.266 9
v -42.8106 9.125 -132.266
vt -132.266 9.125
f 56/67/7 59/71/7 5/72/7 60/73/7 57/68/7 

usemtl Color_L01
v -53.3731 1.8125 -132.266
vt 53.3731 1.8125
vt 53.3731 9
vt 42.8106 9
f 59/63/6 61/74/6 6/75/6 5/76/6 

vt 131.797 1.8125
vn 0.999962 0 0.00869532
v -53.3106 1.8125 -139.454
vt 138.985 1.8125
vt 138.985 9
vt 131.797 9
f 61/77/8 62/78/8 7/79/8 6/80/8 

vt 53.3106 1.8125
v -61.4356 1.8125 -139.454
vt 61.4356 1.8125
vt 61.4356 9
vt 53.3106 9
f 62/81/6 63/82/6 8/83/6 7/84/6 

vt 139.454 1.8125
v -61.4356 1.8125 -145.516
vt 145.516 9
vt 139.454 9
f 63/85/5 64/59/5 9/86/5 8/87/5 

v -87.7481 1.8125 -145.516
vt 87.7481 1.8125
vt 87.7481 9
f 64/82/6 65/88/6 10/89/6 9/83/6 

v -87.7481 1.8125 -134.266
vt -134.266 1.8125
vt -134.266 9
vt -145.516 9
f 65/66/7 66/90/7 11/91/7 10/92/7 

vt -139.718 1.8125
vn -0.997859 0 0.0654031
v -87.6519 1.8125 -132.798
vt -138.246 1.8125
vn -0.991445 0 0.130526
vt -138.246 9
vt -139.718 9
f 66/93/9 67/94/10 12/95/10 11/96/9 

vt -147.346 1.8125
v -87.3648 1.8125 -131.354
vt -145.875 1.8125
vn -0.965926 0 0.258819
vt -145.875 9
vt -147.346 9
f 67/97/10 68/98/11 13/99/11 12/100/10 

vt -152.466 1.8125
v -86.8918 1.8125 -129.961
vt -150.994 1.8125
vn -0.92388 0 0.382683
vt -150.994 9
vt -152.466 9
f 68/101/11 69/102/12 14/103/12 13/104/11 

vt -154.99 1.8125
v -86.2409 1.8125 -128.641
vt -153.518 1.8125
vn -0.866025 0 0.5
vt -153.518 9
vt -154.99 9
f 69/105/12 70/106/13 15/107/13 14/108/12 

vt -154.874 1.8125
v -85.4233 1.8125 -127.418
vt -153.403 1.8125
vn -0.793353 0 0.608761
vt -153.403 9
vt -154.874 9
f 70/109/13 71/110/14 16/111/14 15/112/13 

vt -152.121 1.8125
v -84.4531 1.8125 -126.311
vt -150.65 1.8125
vn -0.707107 0 0.707107
vt -150.65 9
vt -152.121 9
f 71/113/14 72/114/15 17/115/15 16/116/14 

vt -146.778 1.8125
v -83.3467 1.8125 -125.341
vt -145.306 1.8125
vn -0.608761 0 0.793353
vt -145.306 9
vt -146.778 9
f 72/117/15 73/118/16 18/119/16 17/120/15 

vt -138.936 1.8125
v -82.1231 1.8125 -124.523
vt -137.464 1.8125
vn -0.5 0 0.866025
vt -137.464 9
vt -138.936 9
f 73/121/16 74/122/17 19/123/17 18/124/16 

vt -128.729 1.8125
v -80.8033 1.8125 -123.873
vt -127.258 1.8125
vn -0.382683 0 0.92388
vt -127.258 9
vt -128.729 9
f 74/125/17 75/126/18 20/127/18 19/128/17 

vt -116.333 1.8125
v -79.4098 1.8125 -123.399
vt -114.861 1.8125
vn -0.258819 0 0.965926
vt -114.861 9
vt -116.333 9
f 75/129/18 76/130/19 21/131/19 20/132/18 

vt -101.958 1.8125
v -77.9665 1.8125 -123.112
vt -100.486 1.8125
vn -0.19509 0 0.980785
vt -100.486 9
vt -101.958 9
f 76/133/19 77/134/20 22/135/20 21/136/19 

vt -50.0879 1.8125
vn 0.212048 0 0.977259
v -76.13 1.8125 -123.511
vt -48.2086 1.8125
vn 0.142416 0 0.989807
vt -48.2086 9
vt -50.0879 9
f 77/137/21 78/138/22 23/139/22 22/140/21 

vt -67.0305 1.8125
v -74.2556 1.8125 -123.646
vt -65.1512 1.8125
vn 0.00136501 0 0.999999
vt -65.1512 9
vt -67.0305 9
f 78/141/22 79/142/23 24/143/23 23/144/22 

vt -82.6514 1.8125
v -72.3808 1.8125 -123.516
vt -80.7721 1.8125
vn -0.139713 0 0.990192
vt -80.7721 9
vt -82.6514 9
f 79/145/23 80/146/24 25/147/24 24/148/23 

vt -96.6381 1.8125
v -70.5432 1.8125 -123.123
vt -94.7588 1.8125
vn -0.277997 0 0.960582
vt -94.7588 9
vt -96.6381 9
f 80/149/24 81/150/25 26/151/25 25/152/24 

vt -108.711 1.8125
v -68.7794 1.8125 -122.474
vt -106.832 1.8125
vn -0.410721 0 0.911761
vt -106.832 9
vt -108.711 9
f 81/153/25 82/154/26 27/155/26 26/156/25 

vt -118.628 1.8125
v -67.1248 1.8125 -121.583
vt -116.749 1.8125
vn -0.535231 0 0.844706
vt -116.749 9
vt -118.628 9
f 82/157/26 83/158/27 28/159/27 27/160/26 

vt -126.192 1.8125
v -65.6125 1.8125 -120.467
vt -124.313 1.8125
vn -0.649036 0 0.760757
vt -124.313 9
vt -126.192 9
f 83/161/27 84/162/28 29/163/28 28/164/27 

vt -131.251 1.8125
v -64.2726 1.8125 -119.149
vt -129.372 1.8125
vn -0.749862 0 0.661594
vt -129.372 9
vt -131.251 9
f 84/165/28 85/166/29 30/167/29 29/168/28 

vt -133.704 1.8125
v -63.132 1.8125 -117.656
vt -131.825 1.8125
vn -0.835691 0 0.5492
vt -131.825 9
vt -133.704 9
f 85/169/29 86/170/30 31/171/30 30/172/29 

vt -133.501 1.8125
v -62.2136 1.8125 -116.016
vt -131.622 1.8125
vn -0.904807 0 0.425822
vt -131.622 9
vt -133.501 9
f 86/173/30 87/174/31 32/175/31 31/176/30 

vt -130.648 1.8125
v -61.5356 1.8125 -114.263
vt -128.769 1.8125
vn -0.955828 0 0.293928
vt -128.769 9
vt -130.648 9
f 87/177/31 88/178/32 33/179/32 32/180/31 

vt -125.2 1.8125
v -61.1116 1.8125 -112.433
vt -123.321 1.8125
vn -0.974219 0 0.225606
vt -123.321 9
vt -125.2 9
f 88/181/32 89/182/33 34/183/33 33/184/32 

vt -94.5232 1.8125
vn -0.327063 0 0.945002
v -58.5665 1.8125 -111.552
vt -91.83 1.8125
vn -0.308572 0 0.951201
vt -91.83 9
vt -94.5232 9
f 89/185/34 90/186/35 35/187/35 34/188/34 

vt -88.3963 1.8125
v -55.989 1.8125 -110.771
vt -85.7031 1.8125
vn -0.271245 0 0.96251
vt -85.7031 9
vt -88.3963 9
f 90/189/35 91/190/36 36/191/36 35/192/35 

vt -82.137 1.8125
v -53.383 1.8125 -110.091
vt -79.4438 1.8125
vn -0.233505 0 0.972356
vt -79.4438 9
vt -82.137 9
f 91/193/36 92/194/37 37/195/37 36/196/36 

vt -75.7548 1.8125
v -50.7525 1.8125 -109.513
vt -73.0616 1.8125
vn -0.19541 0 0.980722
vt -73.0616 9
vt -75.7548 9
f 92/197/37 93/198/38 38/199/38 37/200/37 

vt -69.2594 1.8125
v -48.1015 1.8125 -109.039
vt -66.5662 1.8125
vn -0.157017 0 0.987596
vt -66.5662 9
vt -69.2594 9
f 93/201/38 94/202/39 39/203/39 38/204/38 

vt -62.6607 1.8125
v -45.434 1.8125 -108.668
vt -59.9675 1.8125
vn -0.118386 0 0.992968
vt -59.9675 9
vt -62.6607 9
f 94/205/39 95/206/40 40/207/40 39/208/39 

vt -55.9688 1.8125
v -42.754 1.8125 -108.401
vt -53.2756 1.8125
vn -0.0795746 0 0.996829
vt -53.2756 9
vt -55.9688 9
f 95/209/40 96/210/41 41/211/41 40/212/40 

vt -49.1937 1.8125
v -40.0657 1.8125 -108.239
vt -46.5005 1.8125
vn -0.0406421 0 0.999174
vt -46.5005 9
vt -49.1937 9
f 96/213/41 97/214/42 42/215/42 41/216/41 

vt -42.3459 1.8125
v -37.3731 1.8125 -108.182
vt -39.6527 1.8125
vn -0.00164786 0 0.999999
vt -39.6527 9
vt -42.3459 9
f 97/217/42 98/218/43 43/219/43 42/220/42 

vt -35.4356 1.8125
vt -32.7424 1.8125
vt -32.7424 9
vt -35.4356 9
f 98/221/43 44/222/2 1/223/2 43/224/43 

usemtl Color_B03
vt -29.3106 9
vn 0 0 1
vt -29.3106 9.125
vt -42.8106 9.125
vt -42.8106 9
f 4/225/44 50/226/44 60/227/44 5/228/44 

usemtl Color_K01
vt -42.8106 138.891
vt -29.3106 138.891
f 57/229/1 60/5/1 50/4/1 49/230/1 

usemtl Color_B03
vt -29.3106 9.25
vt -42.8106 9.25
f 53/231/44 58/232/44 57/227/44 49/226/44 

usemtl Color_L01
vt -42.8106 145.516
vt -29.3106 145.516
f 55/233/1 58/229/1 53/230/1 52/234/1 

