# Alias OBJ Model File
# Exported from SketchUp, (c) 2000-2012 Trimble Navigation Limited
# File units = inches

mtllib TWICE.mtl

g Mesh1 Model

usemtl Color_L01
v 30.4896 10.375 -82.5356
vt 30.4896 82.5356
vn 0 1 -0
v 30.4896 10.375 -94.1606
vt 30.4896 94.1606
v 30.4896 10.375 -99.9106
vt 30.4896 99.9106
v -1.88544 10.375 -99.9106
vt -1.88544 99.9106
v -1.88544 10.375 -78.7287
vt -1.88544 78.7287
v 22.2396 10.375 -78.7287
vt 22.2396 78.7287
v 22.2396 10.375 -82.5356
vt 22.2396 82.5356
f 1/1/1 2/2/1 3/3/1 4/4/1 5/5/1 6/6/1 7/7/1 

v 30.4896 1.8125 -82.5356
vt 82.5356 1.8125
vn 1 0 -0
v 30.4896 1.8125 -94.1606
vt 94.1606 1.8125
vt 94.1606 10.375
vt 82.5356 10.375
f 8/8/2 9/9/2 2/10/2 1/11/2 

usemtl Color_A03
vt 30.4896 1.8125
vn 0 0 1
v 34.1458 1.8125 -94.1606
vt 34.1458 1.8125
v 34.1458 10.375 -94.1606
vt 34.1458 10.375
vt 30.4896 10.375
f 9/12/3 10/13/3 11/14/3 2/15/3 

vt -94.1606 1.8125
vn -1 0 -0
v 34.1458 1.8125 -82.5981
vt -82.5981 1.8125
v 34.1458 10.375 -82.5981
vt -82.5981 10.375
vt -94.1606 10.375
f 10/16/4 12/17/4 13/18/4 11/19/4 

vt 33.972 1.8125
vn -0.00210304 0 0.999998
v 44.6839 1.8125 -82.5759
vt 44.5101 1.8125
v 44.6839 10.375 -82.5759
vt 44.5101 10.375
vt 33.972 10.375
f 12/20/5 14/21/5 15/22/5 13/23/5 

usemtl Color_L01
v 63.8646 1.8125 -82.5356
vt 63.6908 1.8125
v 63.8646 10.375 -82.5356
vt 63.6908 10.375
f 14/21/5 16/24/5 17/25/5 15/22/5 

v 63.8646 1.8125 -99.9106
vt 99.9106 1.8125
v 63.8646 10.375 -99.9106
vt 99.9106 10.375
f 16/8/2 18/26/2 19/27/2 17/11/2 

vt -63.8646 1.8125
vn 0 0 -1
v 44.6839 1.8125 -99.9106
vt -44.6839 1.8125
v 44.6839 10.375 -99.9106
vt -44.6839 10.375
vt -63.8646 10.375
f 18/28/6 20/29/6 21/30/6 19/31/6 

usemtl Color_A03
v 30.4896 1.8125 -99.9106
vt -30.4896 1.8125
vt -30.4896 10.375
f 20/29/6 22/32/6 3/33/6 21/30/6 

usemtl Color_L01
v -1.88544 1.8125 -99.9106
vt 1.88544 1.8125
vt 1.88544 10.375
f 22/32/6 23/34/6 4/35/6 3/33/6 

vt -99.9106 1.8125
v -1.88544 1.8125 -78.7287
vt -78.7287 1.8125
vt -78.7287 10.375
vt -99.9106 10.375
f 23/36/4 24/37/4 5/38/4 4/39/4 

v -1.88544 1.8125 -68.1638
vt -68.1638 1.8125
v -1.88544 10.375 -68.1638
vt -68.1638 10.375
f 24/37/4 25/40/4 26/41/4 5/38/4 

usemtl Color_I01
v -1.88544 1.8125 -60.4731
vt -60.4731 1.8125
v -1.88544 10.375 -60.4731
vt -60.4731 10.375
f 25/40/4 27/42/4 28/43/4 26/41/4 

usemtl Color_L01
v -1.88544 1.8125 -42.6606
vt -42.6606 1.8125
v -1.88544 10.375 -42.6606
vt -42.6606 10.375
f 27/42/4 29/44/4 30/45/4 28/43/4 

vt -1.88544 1.8125
v 14.9896 1.8125 -42.6606
vt 14.9896 1.8125
v 14.9896 10.375 -42.6606
vt 14.9896 10.375
vt -1.88544 10.375
f 29/46/3 31/47/3 32/48/3 30/49/3 

vt 42.6606 1.8125
v 14.9896 1.8125 -60.4731
vt 60.4731 1.8125
v 14.9896 10.375 -60.4731
vt 60.4731 10.375
vt 42.6606 10.375
f 31/50/2 33/51/2 34/52/2 32/53/2 

usemtl Color_I01
v 22.2396 1.8125 -60.4731
vt 22.2396 1.8125
v 22.2396 10.375 -60.4731
vt 22.2396 10.375
f 33/47/3 35/54/3 36/55/3 34/48/3 

v 22.2396 1.8125 -68.1638
vt 68.1638 1.8125
v 22.2396 10.375 -68.1638
vt 68.1638 10.375
f 35/51/2 37/56/2 38/57/2 36/52/2 

usemtl Color_L01
v 22.2396 1.8125 -78.7287
vt 78.7287 1.8125
vt 78.7287 10.375
f 37/56/2 39/58/2 6/59/2 38/57/2 

v 22.2396 1.8125 -82.5356
f 39/58/2 40/8/2 7/11/2 6/59/2 

f 40/54/3 8/12/3 1/15/3 7/55/3 

vt 22.2396 68.1638
vt -1.88544 68.1638
f 38/60/1 6/6/1 5/5/1 26/61/1 

usemtl Color_I01
vt 22.2396 60.4731
vt -1.88544 60.4731
vt 14.9896 60.4731
f 36/62/1 38/60/1 26/61/1 28/63/1 34/64/1 

usemtl Color_L01
vt -1.88544 42.6606
vt 14.9896 42.6606
f 34/64/1 28/63/1 30/65/1 32/66/1 

usemtl Color_A03
vt 34.1458 82.5981
vt 44.6839 82.5759
vt 44.6839 99.9106
vt 34.1458 94.1606
f 13/67/1 15/68/1 21/69/1 3/3/1 2/2/1 11/70/1 

usemtl Color_L01
vt 63.8646 99.9106
vt 63.8646 82.5356
f 19/71/1 21/69/1 15/68/1 17/72/1 

